<svg width="659" height="332" viewBox="0 0 659 332" fill="none" xmlns="http://www.w3.org/2000/svg">
<g clip-path="url(#clip0_525_178)">
<path d="M649.482 328.221H8V331.895H649.482V328.221Z" fill="#0E2E35"/>
<path opacity="0.6" d="M474.777 -3H432.495V325.494H474.777V-3Z" fill="white"/>
<path opacity="0.6" d="M415.73 97.1993H373.448V325.494H415.73V97.1993Z" fill="white"/>
<path opacity="0.6" d="M534.676 68.1705H492.394V325.494H534.676V68.1705Z" fill="white"/>
<path opacity="0.6" d="M356.683 58.0517H314.402V325.494H356.683V58.0517Z" fill="white"/>
<path opacity="0.6" d="M297.637 137.346H255.355V325.492H297.637V137.346Z" fill="white"/>
<g style="mix-blend-mode:multiply" opacity="0.3">
<path d="M474.777 72.7089H432.495V325.494H474.777V72.7089Z" fill="#9BC1F9"/>
</g>
<g style="mix-blend-mode:multiply" opacity="0.3">
<path d="M415.73 149.813H373.448V325.492H415.73V149.813Z" fill="#9BC1F9"/>
</g>
<g style="mix-blend-mode:multiply" opacity="0.3">
<path d="M534.676 127.477H492.394V325.494H534.676V127.477Z" fill="#9BC1F9"/>
</g>
<g style="mix-blend-mode:multiply" opacity="0.3">
<path d="M356.683 119.69H314.402V325.494H356.683V119.69Z" fill="#9BC1F9"/>
</g>
<g style="mix-blend-mode:multiply" opacity="0.3">
<path d="M297.636 180.71H255.355V325.494H297.636V180.71Z" fill="#9BC1F9"/>
</g>
<path d="M555.226 -0.486206L521.534 25.0882L534.385 25.9121L453.961 167.988L409.432 100.977L346.438 248.462L305.92 190.695L255.418 262.35L258.595 275.176L305.899 208.385L348.729 269.447L411.491 122.502L454.697 187.523L543.736 30.226L552.002 39.1504L555.226 -0.486206Z" fill="#5183BF"/>
<path d="M216.898 230.509C168.551 191.864 127.927 141.882 97.1694 83.192C75.0036 101.064 52.8373 118.938 30.6711 136.81C66.235 204.668 113.202 262.463 169.103 307.144C185.035 281.599 200.967 256.054 216.896 230.509H216.898Z" fill="#3C8F7C"/>
<path d="M86.7576 97.2053C72.9886 108.484 59.2196 119.764 45.4506 131.043C48.7293 137.178 47.5394 145.457 42.655 149.656C73.919 205.143 113.099 253.352 158.723 292.472C162.453 286.853 169.485 285.763 174.536 289.878C184.581 274.017 194.629 258.155 204.674 242.295C200.023 238.508 199.361 230.768 203.089 225.151C163.023 190.799 128.617 148.464 101.163 99.7383C96.2813 103.933 89.7768 102.851 86.7576 97.2053Z" fill="#96D9C9"/>
<path d="M142.403 224.046C152.727 210.674 152.627 190.947 142.89 179.147C133.126 167.376 116.445 166.821 104.904 178.721C93.3824 190.595 92.2814 211.706 103.259 224.957C114.221 238.225 132.103 237.396 142.405 224.046H142.403Z" fill="#50BFA5"/>
<path d="M128.827 190.013L131.186 191.003L134.392 188.952L118.298 182.203L115.093 184.254L122.888 187.523C124.705 188.284 125.829 189.984 125.929 191.806L115.659 187.499L112.454 189.549L125.074 194.842C123.78 196.693 121.31 197.453 119.115 196.532L111.503 193.34L110.117 196.644L111.784 209.833L115.986 211.596L114.388 197.945L117.811 199.38C117.842 199.393 117.869 199.405 117.9 199.418C117.922 199.427 117.945 199.436 117.967 199.446C121.764 201.002 126.051 199.503 128.033 196.088L128.901 196.452L132.106 194.401L129.039 193.115C129.172 192.062 129.094 191.012 128.821 190.016L128.827 190.013Z" fill="#96D9C9"/>
<path d="M180.492 258.456C169.475 248.987 158.858 238.951 148.667 228.381C146.92 230.662 145.173 232.941 143.428 235.219C153.762 245.938 164.527 256.114 175.699 265.716C177.296 263.295 178.895 260.874 180.492 258.456Z" fill="#50BFA5"/>
<path d="M207.041 214.929C146.315 207.199 86.7578 186.805 31.5088 154.82C21.0059 179.519 10.5029 204.221 0 228.923C63.8805 265.904 132.741 289.484 202.954 298.423C204.317 270.591 205.678 242.761 207.041 214.929Z" fill="#3C8F7C"/>
<path d="M29.3122 170.881C22.875 186.366 16.4357 201.849 9.99854 217.335C15.8302 220.649 18.8304 227.782 16.6425 233.432C70.7669 262.634 128.21 282.304 186.807 291.703C187.303 285.473 192.865 281.273 199.247 282.141C200.226 264.788 201.205 247.435 202.184 230.08C196.31 229.279 191.964 223.451 192.457 217.227C141 208.974 90.5573 191.699 43.0264 166.057C40.8405 171.703 34.6734 173.931 29.308 170.881H29.3122Z" fill="#96D9C9"/>
<path d="M139.331 245.143C141.764 229.635 132.067 214.025 117.878 209.279C103.683 204.569 88.954 212.044 84.7512 226.964C80.5504 241.854 89.8803 259.129 105.849 264.439C121.815 269.767 136.907 260.627 139.331 245.143Z" fill="#50BFA5"/>
<path d="M119.827 228.013L122.186 229.003L125.392 226.952L109.298 220.203L106.093 222.254L113.888 225.523C115.705 226.284 116.829 227.984 116.929 229.806L106.659 225.499L103.454 227.549L116.074 232.842C114.78 234.693 112.31 235.453 110.115 234.532L102.503 231.34L101.117 234.644L102.784 247.833L106.986 249.596L105.388 235.945L108.811 237.38C108.842 237.393 108.869 237.405 108.9 237.418C108.922 237.427 108.945 237.436 108.967 237.446C112.764 239.002 117.051 237.503 119.033 234.088L119.901 234.452L123.106 232.401L120.039 231.115C120.172 230.062 120.094 229.012 119.821 228.016L119.827 228.013Z" fill="#96D9C9"/>
<path d="M179.155 91.9152C177.682 91.4196 176.233 90.8584 174.832 90.1828C173.249 89.4183 171.198 88.5246 169.903 88.3255C167.175 87.9041 162.491 88.1857 159.904 90.9918C156.68 94.4904 150.954 91.6229 152.108 109.941C153.414 130.677 164.941 128.4 165.219 128.051C165.5 127.699 175.498 114.785 175.498 114.785C175.498 114.785 178.994 122.436 178.994 122.155C178.994 121.873 196.846 97.8723 179.157 91.913L179.155 91.9152Z" fill="#0E2E35"/>
<path d="M191.303 228.614C143.525 247.562 90.8083 256.224 35.9309 254.144C39.5725 277.582 43.2142 301.021 46.8579 324.461C110.308 326.867 171.26 316.852 226.502 294.943C214.769 272.833 203.036 250.724 191.303 228.616V228.614Z" fill="#3C8F7C"/>
<path d="M41.6763 267.482C44.0667 282.116 46.4551 296.748 48.8456 311.382C54.6097 311.553 60.0574 315.846 61.047 321.119C113.833 321.507 164.679 313.152 211.668 296.371C209.18 291.343 211.311 285.807 216.36 283.859C209.138 270.019 201.918 256.181 194.696 242.342C190.05 244.133 184.218 241.406 181.733 236.382C140.468 251.12 95.8195 258.456 49.4638 258.115C50.4533 263.384 46.9784 267.641 41.6741 267.484L41.6763 267.482Z" fill="#96D9C9"/>
<path d="M155.788 279.812C150.469 266.804 136.267 258.699 123.76 260.849C111.263 263.032 103.953 274.867 107.71 288.145C111.46 301.4 126.155 310.945 140.217 308.499C154.286 306.07 161.103 292.794 155.788 279.812Z" fill="#50BFA5"/>
<path d="M128.265 264.578C128.765 266.116 129.265 267.653 129.765 269.191C135.149 269.314 139.112 272.234 140.494 276.252C141.88 280.303 140.569 283.187 135.719 285.936C132.28 287.98 130.942 289.145 131.408 290.644C131.801 291.911 133.179 293.05 136.213 292.599C137.858 292.353 139.128 291.889 140.116 291.402C141.432 290.752 143.228 291.343 144.089 292.709C144.92 294.028 144.551 295.591 143.241 296.195C142.169 296.688 140.837 297.133 139.152 297.468C139.58 298.795 140.006 300.121 140.432 301.449C138.884 301.686 137.331 301.915 135.778 302.135C135.331 300.702 134.883 299.266 134.434 297.832C129.081 297.595 125.224 294.801 124.049 290.809C122.75 286.404 125.452 283.738 129.813 281.411C132.828 279.793 133.915 278.473 133.356 276.758C132.763 274.949 130.693 274.231 128.134 274.602C126.376 274.856 124.819 275.428 123.511 276.125C122.224 276.809 120.414 276.15 119.597 274.72C119.568 274.667 119.538 274.617 119.509 274.564C118.768 273.266 119.106 271.8 120.27 271.205C121.667 270.491 123.431 269.875 125.313 269.519C124.862 268.085 124.41 266.652 123.956 265.218C125.395 265.015 126.834 264.803 128.269 264.583L128.265 264.578Z" fill="#3C8F7C"/>
<path d="M196.274 266.527C184.91 270.57 173.306 274.089 161.495 277.078C162.409 279.286 163.32 281.493 164.234 283.702C176.211 280.671 187.976 277.103 199.5 273.003C198.426 270.845 197.35 268.685 196.276 266.527H196.274Z" fill="#50BFA5"/>
<path d="M112.474 305.913V323.084C112.474 325.861 143.325 328.11 181.381 328.11C219.436 328.11 250.287 325.859 250.287 323.084V305.913H112.472H112.474Z" fill="#E59F39"/>
<path d="M162.341 327.917V305.915H112.474V323.087C112.474 325.38 133.546 327.316 162.341 327.919V327.917Z" fill="#EAB054"/>
<path d="M164.662 327.962C170.015 328.059 175.614 328.11 181.381 328.11C189.972 328.11 198.196 327.996 205.781 327.786V305.913H164.66V327.962H164.662Z" fill="#EAB054"/>
<path d="M208.543 327.706C233.094 326.937 250.287 325.158 250.287 323.084V305.913H208.543V327.703V327.706Z" fill="#EAB054"/>
<path d="M181.381 310.757C219.437 310.757 250.287 308.507 250.287 305.731C250.287 302.956 219.437 300.706 181.381 300.706C143.325 300.706 112.475 302.956 112.475 305.731C112.475 308.507 143.325 310.757 181.381 310.757Z" fill="#E59F39"/>
<path d="M238.123 305.731C238.123 307.656 212.719 309.217 181.381 309.217C150.043 309.217 124.638 307.656 124.638 305.731C124.638 303.806 150.043 302.248 181.381 302.248C212.719 302.248 238.123 303.808 238.123 305.731Z" fill="#F7CC7F"/>
<path d="M100.685 287.745V304.916C100.685 307.692 131.535 309.941 169.591 309.941C207.646 309.941 238.497 307.69 238.497 304.916V287.745H100.682H100.685Z" fill="#E59F39"/>
<path d="M150.551 309.747V287.745H100.685V304.916C100.685 307.209 121.756 309.145 150.551 309.747Z" fill="#EAB054"/>
<path d="M152.872 309.793C158.225 309.891 163.824 309.941 169.591 309.941C178.182 309.941 186.406 309.827 193.991 309.617V287.745H152.87V309.793H152.872Z" fill="#EAB054"/>
<path d="M196.753 309.535C221.304 308.766 238.499 306.987 238.499 304.914V287.743H196.753V309.533V309.535Z" fill="#EAB054"/>
<path d="M169.591 292.588C207.647 292.588 238.497 290.338 238.497 287.563C238.497 284.787 207.647 282.537 169.591 282.537C131.535 282.537 100.685 284.787 100.685 287.563C100.685 290.338 131.535 292.588 169.591 292.588Z" fill="#E59F39"/>
<path d="M226.336 287.563C226.336 289.488 200.931 291.047 169.593 291.047C138.255 291.047 112.85 289.486 112.85 287.563C112.85 285.64 138.255 284.077 169.593 284.077C200.931 284.077 226.336 285.638 226.336 287.563Z" fill="#F7CC7F"/>
<path d="M108.54 269.094V286.265C108.54 289.041 139.39 291.29 177.446 291.29C215.501 291.29 246.352 289.041 246.352 286.265V269.094H108.537H108.54Z" fill="#E59F39"/>
<path d="M158.406 291.095V269.093H108.54V286.264C108.54 288.558 129.611 290.494 158.406 291.095Z" fill="#EAB054"/>
<path d="M160.727 291.14C166.08 291.237 171.679 291.288 177.446 291.288C186.037 291.288 194.261 291.174 201.846 290.964V269.091H160.725V291.14H160.727Z" fill="#EAB054"/>
<path d="M204.608 290.883C229.159 290.115 246.352 288.336 246.352 286.262V269.091H204.608V290.881V290.883Z" fill="#EAB054"/>
<path d="M177.446 273.935C215.502 273.935 246.352 271.685 246.352 268.909C246.352 266.134 215.502 263.884 177.446 263.884C139.39 263.884 108.539 266.134 108.539 268.909C108.539 271.685 139.39 273.935 177.446 273.935Z" fill="#E59F39"/>
<path d="M234.191 268.909C234.191 270.834 208.786 272.393 177.448 272.393C146.11 272.393 120.705 270.832 120.705 268.909C120.705 266.986 146.11 265.423 177.448 265.423C208.786 265.423 234.191 266.984 234.191 268.909Z" fill="#F7CC7F"/>
<path d="M100.685 250.696V267.867C100.685 270.644 131.535 272.893 169.591 272.893C207.646 272.893 238.497 270.642 238.497 267.867V250.696H100.682H100.685Z" fill="#E59F39"/>
<path d="M150.551 272.698V250.696H100.685V267.867C100.685 270.161 121.756 272.096 150.551 272.7V272.698Z" fill="#EAB054"/>
<path d="M152.872 272.742C158.225 272.84 163.824 272.891 169.591 272.891C178.182 272.891 186.406 272.776 193.991 272.567V250.694H152.87V272.742H152.872Z" fill="#EAB054"/>
<path d="M196.753 272.486C221.304 271.717 238.499 269.939 238.499 267.865V250.694H196.753V272.484V272.486Z" fill="#EAB054"/>
<path d="M169.591 255.54C207.647 255.54 238.497 253.29 238.497 250.514C238.497 247.739 207.647 245.489 169.591 245.489C131.535 245.489 100.685 247.739 100.685 250.514C100.685 253.29 131.535 255.54 169.591 255.54Z" fill="#E59F39"/>
<path d="M226.336 250.514C226.336 252.439 200.931 254 169.593 254C138.255 254 112.85 252.439 112.85 250.514C112.85 248.589 138.255 247.03 169.593 247.03C200.931 247.03 226.336 248.591 226.336 250.514Z" fill="#F7CC7F"/>
<path d="M583.135 304.448V320.96C583.135 323.629 553.469 325.793 516.871 325.793C480.273 325.793 450.606 323.629 450.606 320.96V304.448H583.135Z" fill="#E59F39"/>
<path d="M535.18 325.605V304.446H583.135V320.958C583.135 323.165 562.872 325.024 535.18 325.605Z" fill="#EAB054"/>
<path d="M532.95 325.649C527.802 325.742 522.419 325.793 516.874 325.793C508.612 325.793 500.701 325.683 493.407 325.482V304.448H532.95V325.649Z" fill="#EAB054"/>
<path d="M490.751 325.404C467.141 324.664 450.606 322.953 450.606 320.96V304.448H490.751V325.404Z" fill="#EAB054"/>
<path d="M516.871 309.105C553.468 309.105 583.135 306.941 583.135 304.272C583.135 301.603 553.468 299.439 516.871 299.439C480.274 299.439 450.606 301.603 450.606 304.272C450.606 306.941 480.274 309.105 516.871 309.105Z" fill="#E59F39"/>
<path d="M462.303 304.272C462.303 306.123 486.733 307.622 516.871 307.622C547.008 307.622 571.438 306.123 571.438 304.272C571.438 302.421 547.008 300.922 516.871 300.922C486.733 300.922 462.303 302.421 462.303 304.272Z" fill="#F7CC7F"/>
<path d="M594.474 286.974V303.486C594.474 306.155 564.807 308.319 528.209 308.319C491.611 308.319 461.945 306.155 461.945 303.486V286.974H594.474Z" fill="#E59F39"/>
<path d="M546.519 308.133V286.974H594.474V303.486C594.474 305.693 574.211 307.553 546.519 308.133Z" fill="#EAB054"/>
<path d="M544.286 308.177C539.138 308.271 533.754 308.321 528.209 308.321C519.947 308.321 512.037 308.211 504.743 308.01V286.976H544.286V308.177Z" fill="#EAB054"/>
<path d="M502.087 307.93C478.478 307.19 461.943 305.479 461.943 303.486V286.974H502.087V307.93Z" fill="#EAB054"/>
<path d="M528.209 291.631C564.806 291.631 594.474 289.467 594.474 286.798C594.474 284.129 564.806 281.965 528.209 281.965C491.612 281.965 461.945 284.129 461.945 286.798C461.945 289.467 491.612 291.631 528.209 291.631Z" fill="#E59F39"/>
<path d="M528.209 290.149C558.346 290.149 582.777 288.649 582.777 286.798C582.777 284.948 558.346 283.448 528.209 283.448C498.072 283.448 473.642 284.948 473.642 286.798C473.642 288.649 498.072 290.149 528.209 290.149Z" fill="#F7CC7F"/>
<path d="M586.921 269.036V285.549C586.921 288.217 557.254 290.382 520.656 290.382C484.058 290.382 454.391 288.217 454.391 285.549V269.036H586.921Z" fill="#E59F39"/>
<path d="M538.965 290.195V269.036H586.921V285.549C586.921 287.755 566.657 289.615 538.965 290.195Z" fill="#EAB054"/>
<path d="M536.733 290.24C531.585 290.333 526.201 290.384 520.656 290.384C512.394 290.384 504.484 290.274 497.19 290.072V269.038H536.733V290.24Z" fill="#EAB054"/>
<path d="M494.534 289.992C470.924 289.253 454.389 287.542 454.389 285.549V269.036H494.534V289.992Z" fill="#EAB054"/>
<path d="M520.654 273.695C557.251 273.695 586.918 271.532 586.918 268.863C586.918 266.194 557.251 264.03 520.654 264.03C484.057 264.03 454.389 266.194 454.389 268.863C454.389 271.532 484.057 273.695 520.654 273.695Z" fill="#E59F39"/>
<path d="M520.654 272.213C550.791 272.213 575.221 270.713 575.221 268.863C575.221 267.012 550.791 265.512 520.654 265.512C490.517 265.512 466.086 267.012 466.086 268.863C466.086 270.713 490.517 272.213 520.654 272.213Z" fill="#F7CC7F"/>
<path d="M594.474 251.346V267.859C594.474 270.527 564.807 272.692 528.209 272.692C491.611 272.692 461.945 270.527 461.945 267.859V251.346H594.474Z" fill="#E59F39"/>
<path d="M546.519 272.503V251.344H594.474V267.857C594.474 270.063 574.211 271.923 546.519 272.503Z" fill="#EAB054"/>
<path d="M544.286 272.548C539.138 272.641 533.754 272.692 528.209 272.692C519.947 272.692 512.037 272.582 504.743 272.38V251.346H544.286V272.548Z" fill="#EAB054"/>
<path d="M502.087 272.302C478.478 271.563 461.943 269.852 461.943 267.859V251.346H502.087V272.302Z" fill="#EAB054"/>
<path d="M528.209 256.003C564.806 256.003 594.474 253.84 594.474 251.171C594.474 248.502 564.806 246.338 528.209 246.338C491.612 246.338 461.945 248.502 461.945 251.171C461.945 253.84 491.612 256.003 528.209 256.003Z" fill="#E59F39"/>
<path d="M528.209 254.521C558.346 254.521 582.777 253.021 582.777 251.171C582.777 249.32 558.346 247.82 528.209 247.82C498.072 247.82 473.642 249.32 473.642 251.171C473.642 253.021 498.072 254.521 528.209 254.521Z" fill="#F7CC7F"/>
<path d="M625.305 231.28L621.324 245.23C620.681 247.486 595.096 242.106 564.178 233.218C533.262 224.33 508.72 215.295 509.364 213.04L513.345 199.09L625.305 231.28Z" fill="#E59F39"/>
<path d="M579.692 237.507L584.792 219.632L625.303 231.28L621.322 245.23C620.79 247.094 603.223 243.744 579.69 237.509L579.692 237.507Z" fill="#EAB054"/>
<path d="M577.797 237.003C573.426 235.831 568.864 234.565 564.18 233.218C557.201 231.21 550.546 229.196 544.432 227.254L549.502 209.486L582.908 219.09L577.795 237.003H577.797Z" fill="#EAB054"/>
<path d="M542.208 226.545C522.441 220.185 508.885 214.723 509.366 213.042L513.347 199.092L547.261 208.842L542.21 226.545H542.208Z" fill="#EAB054"/>
<path d="M513.387 198.944C512.744 201.199 537.286 210.234 568.202 219.122C599.118 228.01 624.704 233.39 625.348 231.134C625.991 228.879 601.449 219.844 570.533 210.956C539.617 202.068 514.031 196.688 513.387 198.944Z" fill="#E59F39"/>
<path d="M523.27 201.784C522.823 203.347 543.101 210.549 568.56 217.868C594.02 225.187 615.02 229.855 615.467 228.29C615.914 226.727 595.636 219.524 570.177 212.205C544.717 204.886 523.717 200.219 523.27 201.782V201.784Z" fill="#F7CC7F"/>
<path d="M572.799 214.586L575.271 215.245L577.476 215.369L560.614 210.874L558.409 210.749L566.576 212.927C568.479 213.434 570.075 214.027 570.784 214.459L560.023 211.59L557.818 211.466L571.042 214.991C570.499 215.173 568.521 214.891 566.221 214.278L558.245 212.151L558.113 212.646L564.102 215.948L568.506 217.121L562.421 213.728L566.008 214.684C566.04 214.693 566.068 214.7 566.101 214.709C566.124 214.715 566.148 214.721 566.171 214.728C570.137 215.78 573.51 216.229 574.144 215.819L575.053 216.061L577.258 216.186L574.044 215.329C573.807 215.114 573.38 214.862 572.794 214.585L572.799 214.586Z" fill="#E59F39"/>
<path d="M589.1 135.274L593.339 149.146C594.024 151.389 569.653 160.879 538.908 170.343C508.161 179.807 482.68 185.663 481.995 183.42L477.756 169.549L589.1 135.274Z" fill="#E59F39"/>
<path d="M554.241 165.453L548.81 147.676L589.098 135.274L593.337 149.146C593.902 150.999 577.357 157.804 554.241 165.451V165.453Z" fill="#EAB054"/>
<path d="M552.378 166.067C548.078 167.478 543.565 168.911 538.906 170.345C531.965 172.482 525.291 174.435 519.112 176.152L513.712 158.481L546.934 148.254L552.376 166.067H552.378Z" fill="#EAB054"/>
<path d="M516.86 176.773C496.836 182.258 482.505 185.096 481.993 183.422L477.754 169.551L511.48 159.17L516.86 176.775V176.773Z" fill="#EAB054"/>
<path d="M477.71 169.403C478.395 171.645 503.876 165.79 534.621 156.325C565.368 146.861 589.737 137.371 589.052 135.128C588.366 132.886 562.885 138.741 532.14 148.206C501.393 157.67 477.024 167.16 477.71 169.403Z" fill="#E59F39"/>
<path d="M487.537 166.379C488.012 167.933 508.923 162.876 534.241 155.082C559.56 147.289 579.701 139.709 579.226 138.155C578.751 136.6 557.84 141.658 532.522 149.451C507.203 157.244 487.063 164.824 487.537 166.379Z" fill="#F7CC7F"/>
<path d="M535.902 149.714L538.351 148.975L540.292 147.921L523.586 152.965L521.645 154.018L529.737 151.575C531.622 151.006 533.291 150.671 534.122 150.666L523.46 153.885L521.519 154.938L534.621 150.983C534.255 151.423 532.424 152.223 530.145 152.911L522.243 155.297L522.391 155.787L529.221 155.446L533.584 154.129L526.624 154.442L530.178 153.369C530.21 153.359 530.238 153.351 530.27 153.341C530.293 153.334 530.316 153.327 530.339 153.32C534.266 152.13 537.371 150.738 537.694 150.056L538.595 149.784L540.536 148.73L537.352 149.691C537.037 149.634 536.541 149.643 535.897 149.716L535.902 149.714Z" fill="#E59F39"/>
<path d="M225.777 307.87C225.777 307.87 227.414 316.593 227.416 316.613C227.507 317.75 227.473 320.624 227.718 321.615C228.637 325.344 244.269 316.278 240.168 315.549C239.797 315.484 237.107 312.752 236.49 311.593C235.419 309.581 234.433 305.831 234.433 305.831L225.777 307.868V307.87Z" fill="#F7A491"/>
<path d="M239.394 315.005C239.394 315.005 235.357 316.009 233.305 316.214C231.252 316.42 228.614 313.218 227.142 313.823C225.521 314.49 224.637 324.65 224.637 324.65C224.637 324.65 250.422 325.829 256.515 324.139C258.929 323.47 247.415 318.091 239.392 315.005H239.394Z" fill="#F47458"/>
<path d="M261.731 307.472C261.731 307.472 263.368 316.195 263.37 316.214C263.461 317.352 263.427 320.225 263.672 321.217C264.592 324.946 279.937 316.477 275.835 315.748C275.464 315.683 273.063 312.354 272.447 311.197C271.375 309.185 270.39 305.435 270.39 305.435L261.733 307.472H261.731Z" fill="#F7A491"/>
<path d="M274.951 315.005C274.951 315.005 270.915 316.009 268.862 316.214C266.809 316.42 264.172 313.218 262.699 313.823C261.079 314.49 260.195 324.65 260.195 324.65C260.195 324.65 285.98 325.829 292.073 324.139C294.486 323.47 282.973 318.091 274.949 315.005H274.951Z" fill="#F47458"/>
<path d="M172.329 220.141L219.238 209.219C219.238 209.219 240.273 203.637 245.352 210.189C250.43 216.742 271.993 307.182 271.993 307.182C271.993 307.182 260.87 308.152 260.144 307.667L234.108 261.281C231.631 256.87 230.003 252.028 229.306 247.013L227.46 233.731L208.357 239.313C208.357 239.313 186.354 244.167 177.408 238.585C168.462 233.002 172.329 220.139 172.329 220.139V220.141Z" fill="#0E2E35"/>
<path d="M190.343 138.966C191.084 138.995 193.114 139.675 196.084 145.29C199.876 152.458 205.416 174.111 205.416 174.111L188.875 180.273L186.75 175.754L183.25 140.961C183.25 140.961 190.137 138.959 190.343 138.968V138.966Z" fill="#EAB054"/>
<path d="M168.477 135.844C173.207 135.851 184.911 137.231 190.341 138.968C190.341 138.968 194.331 173.276 186.748 199.346C185.052 205.183 188.151 223.538 188.151 223.538L139.139 222.89C139.139 222.89 144.945 178.513 142.757 171.345C140.57 164.176 140.519 139.197 140.519 139.197C140.519 139.197 140.854 139.144 151.53 137.299C156.51 136.437 163.426 135.838 168.475 135.844H168.477Z" fill="#F7CC7F"/>
<path d="M139.987 143.011C144.57 141.291 146.813 182.597 147.429 199.596C155.543 200.377 169.688 199.602 173.211 199.338C174.868 199.213 178.686 197.813 180.334 197.599C182.022 197.379 183.552 197.262 184.383 197.406C184.687 197.459 193.147 200.92 193.871 201.678C194.768 202.618 197.194 204.992 196.785 206.019C196.376 207.046 192.12 203.158 192.12 203.158L190.04 201.991C192.628 204.522 197.568 207.855 196.857 209.069C196.162 210.253 191.706 206.871 188.531 204.564C191.255 207.025 194.639 211.43 193.858 212.116C193.158 212.733 189.31 207.635 185.195 206.168C183.672 205.623 182.151 207.129 180.952 207.311C180.07 207.445 178.71 207.73 177.847 207.485L173.716 207.085C172.199 207.222 171.838 207.256 170.306 207.582C168.527 207.961 165.609 208.359 163.343 208.914C150.3 212.102 145.95 213.582 141.956 213.58C129.86 213.573 129.157 147.075 139.987 143.011Z" fill="#F7A491"/>
<path d="M131.29 181.79C130.432 164.375 130.558 142.911 140.316 139.25C144.167 137.805 150.954 146.492 149.735 182.143C144.525 182.573 136.877 182.921 131.292 181.79H131.29Z" fill="#EAB054"/>
<path d="M239.984 171.148L193.808 174.176C192.586 174.257 191.533 175.07 191.145 176.235L179.193 211.975L153.735 213.643C153.024 213.69 152.484 214.306 152.53 215.02C152.577 215.734 153.191 216.276 153.904 216.229L226.359 211.479C228.351 211.348 230.081 210.056 230.777 208.179L243.01 175.229C243.774 173.17 242.17 171.006 239.986 171.15L239.984 171.148Z" fill="#F47458"/>
<path d="M216.974 193.232C216.881 194.827 215.679 196.055 214.288 195.975C212.896 195.894 211.843 194.537 211.934 192.94C212.026 191.345 213.229 190.117 214.62 190.197C216.012 190.278 217.065 191.635 216.974 193.232Z" fill="white"/>
<path d="M170.405 129.584L171.401 136.994C171.401 136.994 173.629 147.668 170.762 149.726C167.894 151.785 158.567 136.689 158.567 136.689L159.552 117.915L170.405 129.584Z" fill="#F7A491"/>
<path d="M159.235 123.999C161.605 130.404 167.245 134.338 171.249 135.865L170.405 129.584L159.552 117.915L159.233 123.999H159.235Z" fill="#F47458"/>
<path d="M169.817 97.4854C175.894 96.5044 181.344 101.392 181.192 107.476C181.126 110.122 180.908 113.423 180.36 116.979C179.039 125.533 173.206 133.064 169.349 132.39C165.492 131.717 155.787 124.34 157.496 112.167C158.551 104.653 163.443 98.5124 169.819 97.4834L169.817 97.4854Z" fill="#F7A491"/>
<path d="M160.17 113.622C159.845 115.503 158.339 116.812 156.807 116.545C155.275 116.278 154.296 114.537 154.621 112.656C154.946 110.776 156.453 109.467 157.984 109.734C159.516 110.001 160.495 111.742 160.17 113.622Z" fill="#F7A491"/>
<path d="M157.984 109.734C157.984 109.734 162.647 110.892 164.379 107.894C166.109 104.893 172.298 98.4193 180.165 101.102C188.033 103.787 173.243 94.5751 172.614 94.5751C171.985 94.5751 164.432 94.5221 164.432 94.5221C164.432 94.5221 158.611 99.3123 158.4 99.8403C158.191 100.367 156.512 106.104 156.512 106.104L157.984 109.736V109.734Z" fill="#0E2E35"/>
<path d="M386.506 325.039H502.593V282.63H386.506V325.039Z" fill="#50BFA5"/>
<path d="M386.506 294.268H502.593V288.812H386.506V294.268Z" fill="#96D9C9"/>
<path d="M386.506 304.924H502.593V299.469H386.506V304.924Z" fill="#96D9C9"/>
<path d="M386.506 315.579H502.593V310.124H386.506V315.579Z" fill="#96D9C9"/>
<path d="M386.506 325.041H502.593V319.586H386.506V325.041Z" fill="#96D9C9"/>
<path d="M429.719 325.039H453.863V282.63H429.719V325.039Z" fill="#F7CC7F"/>
<path d="M501.184 325.039H518.715V282.63H501.184V325.039Z" fill="#3C8F7C"/>
<path opacity="0.8" d="M419.561 51.0175C418.386 45.8798 413.805 42.0487 408.33 42.0487C407.326 42.0487 406.351 42.1779 405.421 42.4214C402.718 36.6208 396.854 32.6034 390.054 32.6034C388.297 32.6034 386.6 32.8723 385.005 33.37C381.345 27.2856 374.695 23.2173 367.097 23.2173C358.058 23.2173 350.359 28.9756 347.441 37.038C345.376 35.8817 343 35.2209 340.466 35.2209C332.544 35.2209 326.119 41.6675 326.119 49.6219C326.119 50.0942 326.142 50.5601 326.187 51.0197H419.555L419.561 51.0175Z" fill="white"/>
<path opacity="0.8" d="M657.829 83.2554C656.939 79.3672 653.474 76.4679 649.331 76.4679C648.571 76.4679 647.833 76.5653 647.13 76.7496C645.086 72.3594 640.648 69.3204 635.503 69.3204C634.171 69.3204 632.888 69.5237 631.682 69.9006C628.911 65.2966 623.879 62.2173 618.13 62.2173C611.29 62.2173 605.462 66.5757 603.255 72.675C601.692 71.8003 599.894 71.3005 597.976 71.3005C591.98 71.3005 587.119 76.1799 587.119 82.1987C587.119 82.5566 587.138 82.9081 587.172 83.2554H657.829Z" fill="white"/>
<path opacity="0.8" d="M552.119 46.5637C552.895 43.1731 555.917 40.6445 559.529 40.6445C560.191 40.6445 560.835 40.7292 561.449 40.8902C563.232 37.0633 567.101 34.4118 571.589 34.4118C572.749 34.4118 573.868 34.5897 574.92 34.918C577.336 30.9027 581.725 28.2173 586.738 28.2173C592.702 28.2173 597.783 32.0166 599.709 37.3365C601.072 36.5741 602.64 36.1378 604.311 36.1378C609.539 36.1378 613.778 40.3925 613.778 45.6404C613.778 45.9517 613.761 46.2588 613.733 46.5616H552.119V46.5637Z" fill="white"/>
<path d="M238.353 103.514L239.176 113.563L244.991 106.989L263.798 91.5297L247.761 96.6023C247.761 96.6023 239.866 100.452 239.503 100.96C239.14 101.468 238.356 103.516 238.356 103.516L238.353 103.514Z" fill="#50BFA5"/>
<path d="M229.832 99.1983L263.798 91.5297L238.353 103.514L229.832 99.1983Z" fill="#96D9C9"/>
<path d="M251.418 110.956L240.946 105.712L263.798 91.5297L251.418 110.956Z" fill="#96D9C9"/>
<path d="M234.389 109.094C235.957 108.501 237.113 108.374 237.126 108.372L237.05 107.642C236.999 107.648 235.788 107.781 234.134 108.406L234.391 109.094H234.389Z" fill="#3C8F7C"/>
<path d="M217.626 168.486C219.002 167.224 220.242 165.864 221.31 164.443L221.894 164.885C220.799 166.342 219.531 167.736 218.122 169.028L217.628 168.486H217.626ZM224.137 159.769C224.496 159.013 224.827 158.225 225.118 157.427C225.449 156.522 225.743 155.578 225.99 154.621L226.699 154.805C226.445 155.787 226.146 156.755 225.806 157.681C225.506 158.5 225.167 159.309 224.798 160.084L224.137 159.769ZM227.093 143.703L227.825 143.686C227.869 145.681 227.813 147.509 227.646 149.277L226.918 149.207C227.083 147.469 227.139 145.667 227.095 143.701L227.093 143.703ZM226.051 132.693L226.774 132.589C227.08 134.739 227.3 136.494 227.462 138.117L226.734 138.191C226.572 136.579 226.355 134.834 226.049 132.693H226.051ZM225.232 127.161C224.941 125.181 224.848 123.305 224.956 121.585L225.686 121.632C225.582 123.301 225.673 125.126 225.956 127.053L225.962 127.096L225.236 127.195L225.232 127.161ZM226.152 116.066C226.888 114.258 227.958 112.682 229.33 111.382L229.832 111.915C228.536 113.144 227.528 114.635 226.829 116.344L226.152 116.066Z" fill="#3C8F7C"/>
<path d="M532.456 249.924L535.014 249.967L537.184 249.557L519.736 249.261L517.566 249.671L526.017 249.815C527.987 249.848 529.678 250.039 530.471 250.287L519.335 250.098L517.165 250.509L530.849 250.741C530.366 251.049 528.378 251.252 525.999 251.211L517.745 251.071L517.736 251.584L524.345 253.343L528.901 253.42L522.178 251.594L525.89 251.657C525.923 251.658 525.952 251.658 525.986 251.659C526.01 251.659 526.034 251.66 526.059 251.66C530.161 251.725 533.543 251.348 534.059 250.796L535 250.812L537.17 250.401L533.844 250.345C533.562 250.194 533.087 250.052 532.451 249.925L532.456 249.924Z" fill="#E59F39"/>
<path d="M175.626 249.354L178.184 249.441L180.36 249.068L162.919 248.473L160.743 248.847L169.19 249.135C171.159 249.202 172.847 249.421 173.635 249.683L162.504 249.304L160.328 249.677L174.006 250.144C173.517 250.443 171.526 250.612 169.148 250.531L160.898 250.25L160.88 250.762L167.458 252.634L172.012 252.789L165.321 250.848L169.031 250.975C169.065 250.976 169.094 250.977 169.128 250.978C169.152 250.979 169.176 250.98 169.2 250.981C173.301 251.116 176.688 250.796 177.214 250.254L178.155 250.286L180.331 249.912L177.007 249.799C176.728 249.643 176.255 249.493 175.622 249.355L175.626 249.354Z" fill="#E59F39"/>
<path d="M139.171 221.771L190.289 212.913C190.289 212.913 212.389 209.533 217.468 216.085C222.546 222.638 237.294 307.584 237.294 307.584C237.294 307.584 226.171 308.554 225.445 308.069C224.884 307.692 211.417 279.373 205.37 266.614C203.45 262.564 202.1 258.267 201.357 253.845L199.414 242.284L192.981 244.508C181.676 248.413 169.633 249.769 157.769 248.29C152.803 247.672 148.167 246.607 145.291 244.813C136.346 239.231 139.173 221.771 139.173 221.771H139.171Z" fill="#184655"/>
</g>
<defs>
<clipPath id="clip0_525_178">
<rect width="659" height="332" fill="white"/>
</clipPath>
</defs>
</svg>
