<svg width="70" height="70" viewBox="0 0 70 70" fill="none" xmlns="http://www.w3.org/2000/svg">
<g clip-path="url(#clip0_105_1570)">
<path d="M35 70C54.33 70 70 54.33 70 35C70 15.67 54.33 0 35 0C15.67 0 0 15.67 0 35C0 54.33 15.67 70 35 70Z" fill="#9BB1B2"/>
<path d="M52.9211 14.4867L51.2914 14.082L45.4727 16.882L42.0274 14.8422L23.8 14.4703L23.1383 16.0016L18.7141 15.1047L16.5375 16.6852L17.4398 20.7102L19.2719 26.7477L35.0055 42.0602L26.8953 55.1359L24.1281 55.5789L38.3305 69.8469C56.0984 68.1734 70.0055 53.2164 70.0055 35.0055C70.0055 33.8953 69.9453 32.8016 69.8469 31.7188L52.9266 14.4922L52.9211 14.4867Z" fill="#7E9B9B"/>
<path d="M29.4055 31.7298C25.7851 31.3689 21.9187 29.4657 19.3101 26.7696C16.8328 24.2048 14.2297 19.0095 16.2203 15.4821C16.882 14.3009 17.8172 13.9345 18.4789 13.836C20.8031 13.486 23.368 15.8321 23.6523 16.1001L22.3289 17.5001C21.5141 16.7345 19.8242 15.5806 18.7633 15.7392C18.5391 15.772 18.2055 15.8814 17.8992 16.4228C16.4992 18.911 18.6648 23.3243 20.6937 25.4243C22.9633 27.7704 26.4633 29.4931 29.5969 29.8048L29.4055 31.7243V31.7298Z" fill="#F0C01F"/>
<path d="M40.5945 31.7297L40.4031 29.8102C43.5422 29.4985 47.0367 27.7758 49.3062 25.4297C51.3406 23.3297 53.5062 18.9164 52.1008 16.4281C51.7945 15.8867 51.4609 15.7774 51.2312 15.7446C50.1265 15.575 48.3547 16.8602 47.6711 17.5055L46.3476 16.1055C46.632 15.8375 49.1914 13.486 51.5211 13.8414C52.1828 13.9399 53.1125 14.3063 53.7797 15.4875C55.7703 19.0149 53.1672 24.2102 50.6898 26.775C48.0812 29.4711 44.2094 31.3688 40.5945 31.7352V31.7297Z" fill="#F0C01F"/>
<path d="M46.8016 44.1438H23.1984V54.3266H23.2367C23.7125 56.4102 28.7984 58.0563 35 58.0563C41.2016 58.0563 46.2875 56.4157 46.7633 54.3266H46.8016V44.1438Z" fill="#A06C29"/>
<path d="M46.8016 43.8867C46.8016 45.9812 41.5187 47.6765 35 47.6765C28.4812 47.6765 23.1984 45.9812 23.1984 43.8867C23.1984 41.7921 28.4812 40.1023 35 40.1023C41.5187 40.1023 46.8016 41.7976 46.8016 43.8867Z" fill="#D0963A"/>
<path d="M44.5648 44.0179L44.1547 42.7819L40.4523 41.1905V39.8507L36.5422 37.5374L35.0492 37.3952V37.3843H35H34.9508V37.3952L33.4578 37.5374L29.5477 39.8507V41.1905L25.8453 42.7819L25.4352 44.0179C28.5086 46.4569 34.3984 46.3038 35 46.2819C35.607 46.3038 41.4969 46.4569 44.5648 44.0179Z" fill="#F6DC0F"/>
<path d="M40.4523 41.1851V39.8453L40.3812 39.8015C38.7734 40.2335 36.9414 40.4796 35 40.4796C33.0586 40.4796 31.2266 40.2335 29.6187 39.8015L29.5477 39.8453V41.1851L25.8453 42.7765L25.4352 44.0125C28.5086 46.4515 34.3984 46.2984 35 46.2765C35.607 46.2984 41.4969 46.4515 44.5648 44.0125L44.1547 42.7765L40.4523 41.1851Z" fill="#FEEE70"/>
<path d="M40.5562 41.2344C38.9102 41.6992 37.0125 41.9617 35 41.9617C32.9875 41.9617 31.0898 41.6992 29.4437 41.2344L25.8453 42.782L25.4352 44.018C28.5086 46.457 34.3984 46.3039 35 46.282C35.607 46.3039 41.4969 46.457 44.5648 44.018L44.1547 42.782L40.5562 41.2344Z" fill="#F6DC0F"/>
<path d="M22.1758 14.1968V14.2405C22.1758 25.446 27.918 34.5296 35 34.5296C42.082 34.5296 47.8242 25.446 47.8242 14.2405V14.1968H22.1758Z" fill="#F6DC0F"/>
<path d="M47.8242 14.2353C47.8242 15.4985 42.082 16.5267 35 16.5267C27.918 16.5267 22.1758 15.504 22.1758 14.2353C22.1758 12.9665 27.918 11.9438 35 11.9438C42.082 11.9438 47.8242 12.972 47.8242 14.2353Z" fill="#E09426"/>
<path d="M46.5609 14.2351C46.5609 15.307 41.3875 16.171 35 16.171C28.6125 16.171 23.4391 15.3015 23.4391 14.2351C23.4391 13.1687 28.6125 12.2937 35 12.2937C41.3875 12.2937 46.5609 13.1632 46.5609 14.2351Z" fill="#FFDE17"/>
<path d="M38.9977 35.6452C38.9977 36.9085 37.2094 37.9312 35 37.9312C32.7906 37.9312 31.0023 36.9085 31.0023 35.6452C31.0023 34.3819 32.7906 33.3647 35 33.3647C37.2094 33.3647 38.9977 34.3874 38.9977 35.6452Z" fill="#F6DC0F"/>
<path d="M44.0945 42.7546C41.9836 44.1273 38.6969 45.0132 35 45.0132C31.3031 45.0132 28.0164 44.1273 25.9055 42.7546L25.8398 42.782L25.4297 44.0179C28.5031 46.457 34.393 46.3039 34.9945 46.282C35.6016 46.3039 41.4914 46.457 44.5594 44.0179L44.1492 42.782L44.0836 42.7546H44.0945Z" fill="#F1C623"/>
</g>
<defs>
<clipPath id="clip0_105_1570">
<rect width="70" height="70" rx="15" fill="white"/>
</clipPath>
</defs>
</svg>
