<svg width="69" height="69" viewBox="0 0 69 69" fill="none" xmlns="http://www.w3.org/2000/svg">
<g clip-path="url(#clip0_105_2226)">
<path d="M34.5 69C53.5538 69 69 53.5538 69 34.5C69 15.4462 53.5538 0 34.5 0C15.4462 0 0 15.4462 0 34.5C0 53.5538 15.4462 69 34.5 69Z" fill="#EEC65D"/>
<path d="M39.702 17.2932L35.2385 19.5896L29.4328 29.4437L35.4164 34.899L20.107 37.7129L17.2931 44.5752L17.1206 46.4295L39.2977 68.6605C52.5424 66.8169 63.383 57.4588 67.3613 45.0226L39.7074 17.2932H39.702Z" fill="#D3A14B"/>
<path d="M21.2121 45.7663C21.3792 45.5237 21.4008 45.5183 21.6434 45.2919C22.1016 44.8769 22.3765 44.672 22.3334 43.9605C22.3064 43.5076 21.9183 43.0656 21.9776 42.7152C22.0369 42.3702 22.301 42.505 22.2633 42.0576C22.2363 41.7719 22.08 41.5401 21.8806 41.3406C21.6973 41.1627 21.3253 41.0926 21.1906 40.8716C21.0666 40.6722 21.2067 40.3757 21.1528 40.1547C21.0019 39.5132 20.4844 39.2383 19.9184 39.0927C19.2068 38.9148 19.0666 38.9202 19.0828 38.1979C19.0936 37.6049 19.0828 37.4971 18.8672 36.9688L18.6893 36.7424C18.2203 36.6831 17.7567 37.0874 17.4548 37.4108C16.781 38.1332 15.9994 39.0496 15.5681 39.9337C15.1153 40.8716 15.1746 42.1816 15.401 43.1842C15.8754 45.2812 18.2634 48.9144 20.6946 46.4725C20.9102 46.2569 21.0396 46.0143 21.2121 45.7717V45.7663Z" fill="#F9DEC1"/>
<path d="M47.3027 46.3755L47.1788 46.1922C47.1069 46.088 46.9991 45.9694 46.8553 45.8365L46.7745 45.761C46.327 45.3567 45.8688 44.9308 45.9281 43.912C45.9497 43.5616 46.0791 43.2705 46.1815 43.0333C46.2031 42.9848 46.23 42.9255 46.2516 42.8824C46.0952 42.6991 45.9551 42.435 45.9982 41.9875C46.0413 41.5563 46.2408 41.1628 46.602 40.807C46.7637 40.6507 46.947 40.559 47.0925 40.4836H47.0979C47.0817 40.3488 47.0763 40.1709 47.1195 39.9822C47.3135 39.1629 47.9065 38.6184 48.893 38.365C48.893 38.365 49.0385 38.3273 49.1194 38.3111V29.05L34.5 33.3733L19.8752 29.05V38.3111C19.9615 38.3327 20.1017 38.365 20.1017 38.365C21.0881 38.613 21.6811 39.1575 21.8752 39.9822C21.9183 40.1709 21.9129 40.3434 21.8967 40.4836C21.8967 40.4836 21.9021 40.4836 21.9075 40.4836C22.0531 40.559 22.2417 40.6507 22.3981 40.807C22.7592 41.1628 22.9587 41.5563 23.0018 41.9875C23.0449 42.435 22.9048 42.7045 22.7484 42.8824C22.77 42.9255 22.797 42.9848 22.8185 43.0333C22.9209 43.2705 23.0503 43.567 23.0773 43.912C23.142 44.9362 22.6784 45.3567 22.2309 45.761L22.1501 45.8365C22.0063 45.9694 21.8985 46.088 21.8267 46.1922L21.7027 46.3755C21.5787 46.5642 21.4331 46.7852 21.2283 46.99C20.8024 47.4159 20.355 47.6962 19.886 47.8579V49.2757L34.5054 53.3348L49.1248 49.2757V47.8579C48.6558 47.6962 48.203 47.4159 47.7825 46.99C47.5777 46.7852 47.4321 46.5642 47.3081 46.3755H47.3027Z" fill="#762620"/>
<path d="M53.4319 39.9283C53.0006 39.0442 52.219 38.1332 51.5452 37.4055C51.2433 37.082 50.7797 36.6777 50.3107 36.737L50.1328 36.9634C49.9172 37.4863 49.9064 37.5941 49.9172 38.1925C49.9334 38.9149 49.7878 38.9095 49.0763 39.0874C48.5102 39.2329 47.9927 39.5078 47.8418 40.1493C47.7879 40.3703 47.9281 40.6668 47.8041 40.8663C47.6693 41.0927 47.2974 41.1574 47.1141 41.3352C46.9092 41.5347 46.7583 41.7665 46.7313 42.0522C46.6882 42.4996 46.9524 42.3649 47.017 42.7099C47.0763 43.0602 46.6936 43.5023 46.6613 43.9551C46.6181 44.6666 46.8931 44.8715 47.3459 45.2866C47.5884 45.513 47.6046 45.5184 47.7771 45.7609C47.9442 46.0035 48.0844 46.2461 48.2946 46.4617C50.7312 48.9037 53.1192 45.2704 53.5882 43.1734C53.8146 42.1762 53.8793 40.8663 53.4211 39.9229L53.4319 39.9283Z" fill="#F9DEC1"/>
<path d="M37.1414 19.6864C37.1414 19.6864 38.2357 24.8776 42.0361 25.3628C42.1924 24.7482 42.2841 24.1121 42.2841 23.4491C42.2841 19.1474 38.7963 15.665 34.5 15.665C30.2037 15.665 26.7159 19.1474 26.7159 23.4491C26.7159 23.8911 26.7591 24.3224 26.8345 24.7429C28.5757 24.8722 36.4029 25.1418 37.1468 19.6864H37.1414Z" fill="white"/>
<path d="M37.1414 19.6865C36.3975 25.1419 28.5703 24.8723 26.8292 24.743C27.4491 28.4247 30.6403 31.2279 34.4946 31.2279C38.1333 31.2279 41.179 28.732 42.0307 25.3575C38.2357 24.8723 37.136 19.6812 37.136 19.6812L37.1414 19.6865Z" fill="#F9DEC1"/>
</g>
<defs>
<clipPath id="clip0_105_2226">
<rect width="69" height="69" fill="white"/>
</clipPath>
</defs>
</svg>
