<svg width="70" height="70" viewBox="0 0 70 70" fill="none" xmlns="http://www.w3.org/2000/svg">
<g clip-path="url(#clip0_105_2187)">
<path d="M35 70C54.33 70 70 54.33 70 35C70 15.67 54.33 0 35 0C15.67 0 0 15.67 0 35C0 54.33 15.67 70 35 70Z" fill="#E2574C"/>
<path d="M60.6828 39.1697C62.9854 24.9848 53.3528 11.619 39.1678 9.31647C24.9828 7.01392 11.6171 16.6465 9.31454 30.8315C7.012 45.0164 16.6446 58.3822 30.8296 60.6847C45.0145 62.9873 58.3803 53.3547 60.6828 39.1697Z" fill="#FEBD11"/>
<path d="M43.4214 55.3292C54.65 50.6782 59.9822 37.8052 55.3311 26.5766C50.6801 15.3481 37.8072 10.0159 26.5786 14.667C15.35 19.318 10.0179 32.1909 14.6689 43.4195C19.3199 54.6481 32.1929 59.9802 43.4214 55.3292Z" fill="white"/>
<path d="M36.1156 12.9009H33.8789V18.1673H36.1156V12.9009Z" fill="#6D6E71"/>
<path d="M36.1156 51.8384H33.8789V57.0993H36.1156V51.8384Z" fill="#6D6E71"/>
<path d="M57.1047 33.8789H51.8383V36.1156H57.1047V33.8789Z" fill="#6D6E71"/>
<path d="M18.1672 33.8789H12.9008V36.1156H18.1672V33.8789Z" fill="#6D6E71"/>
<path d="M47.1734 36.1211L34.8031 36.0993C34.1961 36.0993 33.6984 35.6071 33.6875 35L33.8789 18.8782L36.1156 18.9L35.8969 33.8625L47.1734 33.8844V36.1211Z" fill="#AC3427"/>
</g>
<defs>
<clipPath id="clip0_105_2187">
<rect width="70" height="70" fill="white"/>
</clipPath>
</defs>
</svg>
