<svg width="1169" height="675" viewBox="0 0 1169 675" fill="none" xmlns="http://www.w3.org/2000/svg">
<path d="M2.11452 458.735C0.900702 417.425 9.23835 375.32 31.8069 338.749C54.3755 302.178 92.0456 271.55 138.104 258.635C196.986 242.126 260.766 255.45 322.135 262.923C403.134 272.795 491.114 270.873 559.532 232.63C612.839 202.83 648.249 154.33 699.606 122.148C792.701 63.818 930.055 70.9065 1023.64 128.668C1117.23 186.429 1167.45 286.989 1167.55 385.459C1167.66 494.888 1106.63 602.219 1009.61 673.397H99.2281C41.0152 612.601 4.39984 536.951 2.11452 458.735Z" stroke="#EDEDED" stroke-width="2.5" stroke-miterlimit="10"/>
<path d="M1167.52 428.952C1168.69 381.949 1160.6 334.043 1138.69 292.431C1116.77 250.819 1080.2 215.97 1035.47 201.283C978.289 182.5 916.359 197.655 856.773 206.165C778.118 217.391 692.682 215.21 626.249 171.692C574.482 137.788 540.102 82.6092 490.226 45.9964C399.826 -20.3749 266.449 -12.3084 175.572 53.4109C84.6951 119.13 35.9165 233.541 35.8244 345.586C35.7155 470.087 94.9916 592.213 189.192 673.188H1073.22C1129.74 604.025 1165.29 517.943 1167.52 428.952Z" fill="#EFEFEF"/>
</svg>
