<svg width="238" height="269" viewBox="0 0 238 269" fill="none" xmlns="http://www.w3.org/2000/svg">
<g clip-path="url(#clip0_105_1614)">
<path d="M178.097 98.8102C178.097 99.2176 177.819 99.6336 177.385 99.6856C176.405 99.7289 175.225 99.7722 173.906 99.8156C171.016 91.6254 167.841 85.0993 168.648 87.6387C169.819 91.3134 170.617 96.5655 170.487 99.9282C168.951 99.9716 165.394 100.041 163.615 100.076C161.307 85.7407 158.14 75.0632 158.262 78.3392C158.765 91.5301 157.871 95.7335 156.83 100.232C140.24 100.544 118.488 100.717 102.766 100.509C101.17 92.5701 99.816 83.9987 99.5297 84.588C97.2651 88.9907 96.5015 95.4302 96.3106 100.405C91.3042 100.301 87.3043 100.128 84.8748 99.9022C84.8748 99.9022 83.8944 93.2375 83.7816 91.0534C83.4779 85.4893 84.2501 79.8126 85.9941 74.4912C87.8075 69.0138 90.827 64.2037 93.6903 59.281C93.7163 59.2376 93.7337 59.1943 93.7597 59.177C93.7597 59.1596 93.7684 59.1596 93.7857 59.1336C95.7466 55.7276 97.2217 52.4429 98.2542 48.9588C98.2629 48.9415 98.2802 48.9155 98.2802 48.8808C98.9917 46.4108 99.4949 43.8454 99.79 41.02C100.788 31.3046 106.514 23.0278 115.746 20.7051C133.499 4.89683 150.644 12.2203 155.537 24.8478C156.006 26.0785 156.457 27.4912 156.891 29.0252V29.0772C158.522 34.7539 159.902 42.1034 161.212 47.7801C161.203 47.7975 161.212 47.8148 161.212 47.8148C161.203 47.8321 161.212 47.8495 161.229 47.8755V47.8928C161.88 50.5968 162.487 52.9022 163.103 54.4709C167.19 64.7497 177.021 70.7905 178.088 98.8276L178.097 98.8102Z" fill="#263238"/>
<path d="M111.677 23.2791C105.577 26.2432 101.76 30.7239 100.632 37.8047C99.9722 41.9301 99.5817 45.9688 97.8811 49.8342C96.1284 53.8296 93.43 57.0623 90.6621 60.295C86.2631 65.4344 83.1568 70.5825 82.3065 77.5419C81.4389 84.6054 81.5517 92.9775 83.7555 99.6509C83.7642 99.6856 83.8249 99.6769 83.8163 99.6336C82.0636 92.8822 82.2718 83.6 83.6601 76.6146C85.1872 68.9358 89.6903 64.2037 94.3237 58.4663C98.0026 53.9076 100.415 48.8202 101.334 42.9094C101.881 39.408 101.933 35.7506 103.434 32.4833C105.23 28.5832 108.675 26.1565 112.076 24.0158C112.536 23.7211 112.137 23.0625 111.668 23.2878L111.677 23.2791Z" fill="#263238"/>
<path d="M172.891 65.6164C168.804 59.983 164.518 55.1556 162.218 48.2395C160.127 41.9387 159.017 35.3086 156.882 29.0079C156.847 28.9039 156.7 28.9472 156.726 29.0512C159.971 40.214 160.344 51.4029 167.251 60.9103C170.999 66.0758 174.756 70.8685 177.151 77.0046C179.667 83.4527 180.647 90.1175 180.621 97.1376C180.621 97.3802 180.934 97.3802 180.96 97.1376C182.339 85.8187 179.303 74.4652 172.882 65.6164H172.891Z" fill="#263238"/>
<path d="M117.837 18.9285C117.56 21.2599 106.072 26.1913 98.4624 19.7085C90.9658 13.3211 94.931 1.56893 105.768 3.42362C112.614 4.59364 118.427 13.9884 117.837 18.9285Z" fill="#263238"/>
<path d="M95.0959 8.87483C96.4841 5.99746 98.8962 3.77876 101.595 2.50474C104.319 1.21339 107.46 1.36939 109.89 3.02475C112.406 4.59344 114.228 7.17614 115.607 9.91485C116.276 11.3015 116.831 12.7662 117.247 14.2742C117.681 15.7736 117.985 17.3336 117.846 18.9283C118.384 17.3943 118.254 15.7129 118.089 14.1096C117.863 12.4976 117.464 10.9029 116.866 9.37751C115.66 6.3528 113.742 3.42342 110.835 1.56006C109.386 0.641377 107.668 0.0260349 105.907 3.44849e-05C104.154 -0.0259659 102.436 0.450708 100.97 1.29139C98.0373 2.93808 95.8421 5.75479 95.0959 8.87483Z" fill="#263238"/>
<path d="M150.401 99.0703C189.584 126.345 242.746 182.731 237.653 198.409C231.987 215.864 176.995 183.32 177.992 180.72C178.834 178.51 154.088 139.206 136.058 110.45C118.054 81.7194 140.709 92.3276 150.401 99.0703Z" fill="#F7A9A0"/>
<path d="M198.235 131.597L153.533 149.347C153.533 149.347 135.277 118.857 129.273 101.098C125.907 91.1403 131.833 89.5023 140.501 93.4024C170.834 107.035 198.226 131.597 198.226 131.597H198.235Z" fill="#455A64"/>
<path d="M156.145 101.436C151.355 100.648 146.462 100.795 141.611 101.306C137.707 101.722 133.828 102.338 129.941 102.953C129.837 102.684 129.742 102.416 129.646 102.147C133.585 101.532 137.542 100.925 141.533 100.5C145.75 100.067 150.062 99.8763 154.305 100.396C154.921 100.743 155.537 101.09 156.145 101.436ZM167.346 108.309C164.179 109.202 161.004 110.034 157.793 110.745C152.822 111.793 147.737 112.729 142.696 112.261C140.188 112.001 137.698 111.412 135.321 110.537C134.366 110.181 133.421 109.774 132.501 109.332C132.605 109.566 132.709 109.809 132.813 110.043C133.568 110.407 134.34 110.745 135.13 111.048C137.533 111.975 140.05 112.625 142.626 112.92C145.212 113.189 147.798 113.041 150.357 112.755C152.917 112.452 155.442 111.993 157.941 111.412C161.325 110.632 164.674 109.713 167.997 108.734C167.78 108.595 167.563 108.448 167.346 108.309ZM188.057 123.173C184.266 126.388 180.448 129.569 176.448 132.507C172.335 135.471 168.058 138.383 163.26 140.004C160.856 140.766 158.349 141.243 155.815 141.399C153.464 141.538 151.104 141.416 148.761 141.113C148.865 141.286 148.96 141.451 149.056 141.616C151.303 141.919 153.576 142.049 155.85 141.945C158.427 141.824 160.986 141.399 163.459 140.619C165.932 139.822 168.249 138.652 170.461 137.352C172.682 136.043 174.808 134.596 176.856 133.053C180.873 130.037 184.708 126.787 188.5 123.519C188.352 123.407 188.205 123.294 188.057 123.173ZM186.686 122.098C184.205 122.124 181.715 122.271 179.233 122.497C176.682 122.8 174.131 123.138 171.632 123.771C166.583 124.906 161.871 127.177 157.429 129.707C153.62 131.9 149.932 134.275 146.262 136.658C146.41 136.91 146.54 137.144 146.67 137.386C150.366 135.003 154.036 132.593 157.837 130.418C162.244 127.879 166.869 125.686 171.806 124.499C174.261 123.849 176.786 123.485 179.303 123.155C181.836 122.895 184.378 122.713 186.929 122.67C187.086 122.67 187.242 122.661 187.398 122.661C187.164 122.479 186.929 122.297 186.686 122.098Z" fill="#37474F"/>
<path d="M192.248 133.971L153.533 149.346C153.533 149.346 135.286 118.856 129.282 101.098C127.121 94.728 128.779 91.7639 132.527 91.4692L192.248 133.971Z" fill="#37474F"/>
<path d="M152.301 141.694C158.947 138.392 177.246 129.968 189.853 126.033C189.931 126.007 190.053 126.284 189.984 126.319C179.988 131.164 159.398 139.389 152.483 142.101C152.353 142.153 152.179 141.755 152.301 141.685V141.694Z" fill="#263238"/>
<path d="M181 231H67C67 231 71.6228 142.009 110.253 97.9044C120.678 86.0111 137.062 88.9062 145.405 97.5828C159.204 111.928 175.493 143.078 176.733 149.868C178.78 161.101 172.336 173.237 172.336 173.237L180.991 231H181Z" fill="#455A64"/>
<path d="M175.433 191.32C172.474 192.204 169.489 193.027 166.479 193.746C161.498 194.934 156.422 195.852 151.294 196.173C148.726 196.268 146.158 196.424 143.59 196.199C141.013 196 138.479 195.454 136.024 194.708C131.095 193.209 126.505 190.826 122.158 188.139C117.794 185.461 113.629 182.479 109.343 179.697C106.983 178.146 104.588 176.638 102.124 175.26C101.803 175.078 101.473 174.896 101.144 174.723C99.4689 173.813 97.7596 172.972 96.007 172.227C93.6643 171.239 91.2435 170.433 88.762 169.921C86.2718 169.419 83.7295 169.219 81.2133 169.341C79.8164 169.436 78.4281 169.627 77.0572 169.904C77.1179 169.661 77.1787 169.419 77.2481 169.176C78.5409 168.933 79.8511 168.76 81.1699 168.691C83.7642 168.578 86.3499 168.838 88.8748 169.384C91.391 169.939 93.8378 170.788 96.1892 171.811C98.0633 172.634 99.8854 173.553 101.655 174.558C101.985 174.731 102.298 174.913 102.619 175.104C104.97 176.465 107.261 177.938 109.508 179.446C113.751 182.306 117.941 185.244 122.315 187.87C126.679 190.514 131.26 192.854 136.145 194.292C138.592 195.003 141.091 195.514 143.624 195.679C146.158 195.87 148.709 195.696 151.251 195.566C156.336 195.185 161.351 194.214 166.305 193.027C169.333 192.299 172.335 191.441 175.311 190.522L175.433 191.32ZM174.956 188.139C173.455 187.238 171.98 186.293 170.522 185.331C166.236 182.549 162.071 179.567 157.706 176.889C153.351 174.211 148.761 171.819 143.833 170.32C141.377 169.575 138.843 169.029 136.275 168.829C133.698 168.604 131.13 168.76 128.57 168.855C123.442 169.176 118.367 170.095 113.378 171.282C109.43 172.227 105.525 173.362 101.655 174.558C101.482 174.61 101.317 174.662 101.144 174.723C100.302 174.983 99.4516 175.243 98.6099 175.511C93.725 177.054 88.8921 178.701 83.9638 180.001C80.7708 180.85 77.5344 181.535 74.2633 181.873C74.2026 182.15 74.1505 182.419 74.0898 182.687C77.4997 182.367 80.8749 181.656 84.172 180.789C90.237 179.169 96.1631 177.141 102.124 175.26L102.619 175.104C106.237 173.969 109.872 172.894 113.56 172.01C118.505 170.814 123.529 169.843 128.614 169.462C131.156 169.341 133.707 169.159 136.232 169.349C138.765 169.514 141.273 170.025 143.711 170.736C148.596 172.175 153.186 174.515 157.542 177.158C161.923 179.784 166.114 182.722 170.357 185.582C171.893 186.614 173.446 187.628 175.025 188.598L174.956 188.139ZM147.885 100.102C145.759 100.128 143.633 100.284 141.533 100.5C135.286 101.168 129.117 102.26 122.939 103.204L122.419 103.282C118.67 103.854 114.913 104.357 111.139 104.669C109.117 104.834 107.087 104.964 105.057 105.024C104.874 105.267 104.701 105.51 104.527 105.752C106.757 105.718 108.979 105.588 111.2 105.414C115.252 105.085 119.278 104.565 123.286 103.976C123.468 103.95 123.651 103.924 123.824 103.898C124.701 103.768 125.577 103.638 126.453 103.499C131.512 102.728 136.544 101.844 141.611 101.306C143.928 101.055 146.253 100.899 148.57 100.89C148.344 100.622 148.119 100.362 147.885 100.102ZM156.327 111.048C151.824 111.966 147.242 112.686 142.696 112.261C140.188 112.001 137.698 111.412 135.321 110.536C132.943 109.652 130.679 108.482 128.51 107.139C126.896 106.134 125.334 105.042 123.824 103.898C123.529 103.664 123.234 103.438 122.939 103.204C120.718 101.462 118.584 99.5989 116.492 97.7095C115.547 96.8689 114.618 96.0108 113.681 95.1528C113.612 95.2048 113.551 95.2655 113.482 95.3175C114.41 96.1928 115.347 97.0682 116.284 97.9349C118.28 99.7722 120.302 101.584 122.419 103.282C122.705 103.525 122.991 103.75 123.286 103.976C124.891 105.241 126.549 106.428 128.275 107.529C130.444 108.898 132.718 110.112 135.13 111.048C137.533 111.975 140.05 112.625 142.627 112.92C145.212 113.188 147.798 113.041 150.357 112.755C152.518 112.495 154.652 112.131 156.761 111.672C156.622 111.464 156.474 111.256 156.327 111.048ZM171.242 136.06C168.708 137.655 166.079 139.05 163.26 140.003C160.856 140.766 158.349 141.243 155.815 141.399C153.281 141.546 150.739 141.399 148.214 141.044C146.323 140.784 144.457 140.411 142.609 139.969C142.245 139.882 141.88 139.795 141.525 139.709C138.783 139.007 136.084 138.166 133.403 137.282C128.536 135.713 123.746 133.911 118.835 132.455C113.933 130.99 108.883 129.872 103.729 129.707C101.17 129.621 98.5752 129.751 96.0417 130.219C93.9332 130.6 91.8942 131.215 89.8639 131.857L89.5515 132.585C91.7207 131.874 93.8985 131.155 96.1371 130.739C98.6273 130.236 101.178 130.08 103.72 130.141C108.814 130.262 113.846 131.337 118.748 132.758C123.659 134.162 128.466 135.904 133.308 137.568C135.867 138.443 138.462 139.284 141.082 139.986C141.438 140.082 141.794 140.177 142.149 140.264C144.128 140.766 146.123 141.191 148.154 141.494C150.687 141.876 153.273 142.066 155.85 141.945C158.427 141.824 160.986 141.399 163.459 140.619C165.932 139.821 168.249 138.651 170.461 137.351C170.826 137.135 171.199 136.909 171.554 136.684L171.242 136.06ZM165.576 125.686C162.756 126.813 160.049 128.217 157.429 129.707C151.989 132.845 146.791 136.346 141.525 139.709C141.377 139.795 141.23 139.891 141.082 139.986C137.889 142.014 134.661 143.999 131.33 145.81C126.852 148.246 122.254 150.482 117.447 152.163C115.026 152.943 112.605 153.775 110.115 154.252C107.625 154.746 105.074 154.902 102.532 154.85C97.4386 154.72 92.4062 153.654 87.5125 152.232C85.8726 151.764 84.2501 151.262 82.6363 150.733C82.6102 150.811 82.5755 150.898 82.5495 150.984C84.1634 151.522 85.7859 152.042 87.4171 152.527C92.3194 153.992 97.3779 155.11 102.523 155.283C105.091 155.37 107.677 155.24 110.211 154.763C112.753 154.312 115.2 153.498 117.646 152.735C122.514 151.097 127.182 148.904 131.685 146.46C135.26 144.528 138.722 142.422 142.149 140.264C142.305 140.168 142.462 140.073 142.609 139.969C143.364 139.501 144.11 139.024 144.856 138.547C149.169 135.8 153.412 132.949 157.837 130.418C160.466 128.901 163.181 127.506 165.984 126.379C165.845 126.154 165.715 125.92 165.576 125.686ZM177.854 207.44C174.157 206.512 170.383 205.862 166.557 205.741C163.988 205.654 161.403 205.784 158.869 206.252C156.318 206.712 153.88 207.518 151.433 208.281C146.557 209.919 141.898 212.12 137.394 214.555C133.82 216.488 130.349 218.594 126.922 220.752C126.774 220.856 126.618 220.951 126.462 221.047L124.223 222.477C119.911 225.224 115.66 228.067 111.243 230.606C111.13 230.667 111.018 230.736 110.905 230.797H112.527C117.655 227.798 122.566 224.496 127.555 221.324L127.998 221.038C131.191 219.01 134.418 217.025 137.75 215.214C142.219 212.779 146.817 210.543 151.633 208.861C154.045 208.073 156.466 207.241 158.956 206.772C161.446 206.27 164.006 206.114 166.539 206.174C170.374 206.27 174.183 206.894 177.914 207.812L177.854 207.44ZM180.942 227.945C180.717 228.041 180.491 228.119 180.266 228.197C177.845 228.977 175.424 229.817 172.934 230.285C171.641 230.537 170.34 230.71 169.021 230.797C167.797 230.883 166.583 230.91 165.359 230.883C164.769 230.866 164.179 230.84 163.589 230.797C159.103 230.502 154.661 229.523 150.331 228.266C145.42 226.862 140.614 225.111 135.772 223.447C133.204 222.572 130.618 221.74 127.998 221.038C127.642 220.943 127.278 220.847 126.922 220.752C124.944 220.249 122.948 219.825 120.926 219.521C118.384 219.149 115.807 218.958 113.23 219.071C110.653 219.201 108.085 219.625 105.612 220.397C103.139 221.194 100.831 222.373 98.6099 223.673C96.3974 224.981 94.2716 226.429 92.2239 227.971C90.9919 228.89 89.7771 229.835 88.5798 230.797H89.6123C90.6014 230.025 91.6079 229.263 92.6231 228.517C96.7445 225.545 101.013 222.641 105.82 221.021C108.215 220.249 110.731 219.781 113.256 219.625C115.79 219.469 118.341 219.625 120.857 219.972C122.74 220.241 124.605 220.605 126.462 221.047C126.826 221.133 127.191 221.229 127.555 221.324C130.288 222.009 132.995 222.849 135.677 223.733C140.535 225.311 145.334 227.113 150.245 228.569C153.394 229.505 156.613 230.303 159.876 230.797C161.68 231.074 163.502 231.256 165.342 231.317C167.91 231.404 170.496 231.273 173.029 230.797C175.58 230.346 178.018 229.531 180.465 228.769C180.656 228.708 180.838 228.639 181.029 228.569L180.942 227.945Z" fill="#37474F"/>
<path d="M137.898 165.276C143.095 165.857 148.301 166.611 153.359 167.954C155.876 168.621 158.349 169.401 160.813 170.233C162.045 170.649 163.277 171.022 164.518 171.395C165.793 171.776 167.164 172.123 168.5 172.183C168.622 172.183 168.613 172.365 168.5 172.374C167.199 172.4 165.958 172.417 164.656 172.27C163.424 172.131 162.201 171.854 161.004 171.551C158.444 170.901 155.919 170.129 153.368 169.445C148.223 168.075 143.078 166.706 137.837 165.709C137.594 165.666 137.663 165.25 137.906 165.285L137.898 165.276Z" fill="#263238"/>
<path d="M124.961 169.774C129.238 169.375 133.603 169.176 137.906 169.263C140.067 169.306 142.21 169.479 144.362 169.705C145.386 169.809 146.409 169.939 147.433 170.077C148.561 170.233 149.663 170.537 150.791 170.675C150.913 170.693 150.904 170.875 150.791 170.866C149.724 170.771 148.639 170.849 147.563 170.814C146.488 170.779 145.412 170.736 144.336 170.701C142.184 170.632 140.032 170.58 137.872 170.493C133.559 170.311 129.264 170.173 124.952 170.138C124.718 170.138 124.744 169.8 124.961 169.783V169.774Z" fill="#263238"/>
<path d="M237.627 198.045C233.176 210.43 213.888 217.814 167.069 240.946C160.587 244.144 125.672 204.554 132.414 200.775C140.908 196.026 174.895 179.412 177.541 178.519C199.805 170.918 240.646 189.647 237.627 198.045Z" fill="#F7A9A0"/>
<path d="M85.2219 253.279C89.8986 257.361 99.0004 244.994 99.0004 244.994C99.0004 244.994 98.3062 249.223 100.675 252.594C103.382 256.46 110.636 253.92 110.636 253.92C110.636 253.92 110.827 258.349 113.681 261.66C116.64 265.1 124.327 263.575 124.327 263.575C124.327 263.575 126.792 267.51 131.295 268.697C144.084 272.06 166.626 246.242 171.494 237.523L143 195.662C143 195.662 110.193 205.196 100.649 215.336C95.3562 220.96 78.0897 247.03 85.2392 253.27L85.2219 253.279Z" fill="#F7A9A0"/>
<path d="M98.9483 244.786C102.471 237.116 107.833 230.295 113.074 223.777C113.187 223.63 113.412 223.821 113.299 223.959C108.015 230.381 104.31 238.372 99.2954 244.994C99.1566 245.176 98.8616 244.994 98.957 244.786H98.9483Z" fill="#263238"/>
<path d="M110.297 253.34C111.148 251.624 112.562 250.203 113.82 248.781C115.174 247.256 116.562 245.757 117.967 244.274C120.779 241.31 123.668 238.416 126.627 235.608C126.757 235.486 126.983 235.651 126.852 235.79C124.05 238.745 121.299 241.744 118.627 244.812C117.291 246.346 115.963 247.897 114.653 249.457C113.43 250.905 112.258 252.534 110.74 253.687C110.514 253.86 110.176 253.591 110.306 253.331L110.297 253.34Z" fill="#263238"/>
<path d="M124.432 263.454C125.108 261.937 126.67 260.689 127.824 259.519C129.134 258.193 130.436 256.867 131.737 255.532C134.332 252.863 136.917 250.185 139.416 247.42C139.538 247.282 139.763 247.464 139.642 247.602C137.117 250.419 134.635 253.279 132.093 256.07C130.844 257.448 129.585 258.808 128.319 260.169C127.243 261.322 126.028 262.89 124.57 263.584C124.492 263.618 124.406 263.523 124.44 263.445L124.432 263.454Z" fill="#263238"/>
<path d="M200.933 177.722C197.046 176.595 186.331 174.42 177.585 178.424C177.489 178.467 177.533 178.614 177.637 178.58C185.159 176.361 197.046 177.098 200.907 177.878C201.012 177.895 201.038 177.748 200.942 177.722H200.933Z" fill="#263238"/>
<path d="M117.291 107.373C115.677 125.773 90.879 209.009 52.0338 221.705C38.8453 226.013 19.3229 174.211 24.095 113.518C24.2338 111.724 65.1355 102.511 68.5107 111.888C68.8751 112.894 71.9987 139.908 70.8273 139.631C69.3697 139.284 81.7859 125.634 102.167 103.17C111.807 92.5441 118.254 96.3749 117.291 107.373Z" fill="#F7A9A0"/>
<path d="M70.1245 137.499C71.721 151.331 73.0485 165.198 74.003 179.091C74.2633 182.965 74.5669 186.83 74.8446 190.704C74.8533 190.843 75.0702 190.817 75.0789 190.687C75.3478 183.719 75.209 176.759 74.7492 169.8C74.298 162.919 73.6819 155.968 72.5453 149.156C71.8945 145.238 71.1831 141.338 70.3848 137.456C70.3501 137.291 70.1072 137.343 70.1332 137.508L70.1245 137.499Z" fill="#263238"/>
<path d="M23.9996 125.504C20.7024 121.171 7.33175 99.9629 4.937 93.2288C2.54225 86.4947 -2.95873 66.6218 2.02165 64.2644C6.99336 61.907 9.06708 67.5925 9.06708 67.5925C9.06708 67.5925 8.07794 58.8303 13.3013 56.915C18.5246 54.9996 21.466 63.9524 21.466 63.9524C21.466 63.9524 21.1016 54.8869 26.455 53.3443C31.7999 51.8016 33.2489 61.3004 33.2489 61.3004C33.2489 61.3004 32.5287 53.0236 37.4744 53.6043C43.4179 54.3063 43.0101 69.7158 46.2204 76.9439C46.9493 78.5906 63.3481 109.193 63.3481 109.193L24.0082 125.487L23.9996 125.504Z" fill="#F7A9A0"/>
<path d="M33.1013 60.5029C32.8324 71.8304 34.6718 76.8398 40.4071 86.4166C40.5199 86.6073 40.2682 86.8153 40.1294 86.6246C33.6567 77.7585 30.4376 71.8131 32.546 60.4596C32.6502 59.9049 33.11 59.9656 33.0927 60.5029H33.1013Z" fill="#263238"/>
<path d="M21.5007 63.0597C22.2469 74.8552 24.1991 80.2979 29.4658 90.7674C29.5439 90.9147 29.301 91.0534 29.2055 90.9147C23.1753 81.0779 20.1037 75.0718 20.902 63.1897C20.9367 62.6523 21.4573 62.5223 21.492 63.0597H21.5007Z" fill="#263238"/>
<path d="M9.3534 68.1212C10.9065 79.4833 12.7807 85.5501 19.21 95.0576C19.3576 95.2829 19.0452 95.5256 18.8717 95.3176C11.3837 86.2608 8.97162 78.712 9.01501 68.2078C9.01501 67.4885 9.25795 67.4105 9.3534 68.1212Z" fill="#263238"/>
<path d="M48.7106 31.7294H17.4227C15.6787 31.7294 14.2557 33.1681 14.2557 34.9534V99.2784C14.2557 101.055 15.67 102.502 17.4227 102.502H48.7106C50.4546 102.502 51.8776 101.055 51.8776 99.2784V34.9448C51.8776 33.1681 50.4546 31.7207 48.7106 31.7207V31.7294ZM49.8993 97.285C49.8993 98.975 48.6325 100.344 47.062 100.344H19.0712C17.5008 100.344 16.234 98.975 16.234 97.285V37.3888C16.234 33.9394 17.5008 33.7747 19.0712 33.7747H24.6763C25.0061 33.7747 25.2664 34.1474 25.2664 34.6067V34.8061C25.2664 35.8808 25.8564 35.8808 26.5765 35.8808H39.5394C40.2682 35.8808 40.8496 35.8808 40.8496 34.8061V34.6067C40.8496 34.1474 41.1099 33.7747 41.4396 33.7747H47.0447C48.6065 33.7747 49.882 34.2341 49.882 37.3888V97.2937L49.8993 97.285Z" fill="#37474F"/>
<path d="M49.8993 37.4407V97.3456C49.8993 99.0356 48.6325 100.405 47.062 100.405H19.0799C17.5094 100.405 16.2426 99.0356 16.2426 97.3456V37.4407C16.2426 33.9913 17.5094 33.8267 19.0799 33.8267H24.685C25.0147 33.8267 25.275 34.1993 25.275 34.6587V34.858C25.275 35.9327 25.865 35.9327 26.5852 35.9327H39.5481C40.2769 35.9327 40.8583 35.9327 40.8583 34.858V34.6587C40.8583 34.1993 41.1186 33.8267 41.4483 33.8267H47.0534C48.6152 33.8267 49.8906 34.286 49.8906 37.4407H49.8993Z" fill="#5183BF"/>
<path opacity="0.2" d="M49.8993 79.4918V97.3368C49.8993 99.0268 48.6325 100.396 47.062 100.396H19.0799C17.5094 100.396 16.2426 99.0268 16.2426 97.3368V73.9971C20.2426 80.9738 24.711 82.9845 28.7891 81.9532C33.4397 80.7745 40.086 74.7598 46.3506 76.8571C47.8603 77.3598 49.0056 78.2871 49.908 79.4918H49.8993Z" fill="white"/>
<path d="M34.8367 34.5286H31.2966C31.1751 34.5286 31.0797 34.4332 31.0797 34.3119C31.0797 34.1905 31.1751 34.0952 31.2966 34.0952H34.8367C34.9581 34.0952 35.0536 34.1905 35.0536 34.3119C35.0536 34.4332 34.9581 34.5286 34.8367 34.5286Z" fill="#263238"/>
<path d="M23.7132 35.118C23.7132 35.118 23.6785 35.1527 23.6612 35.17C23.6525 35.1787 23.6438 35.1874 23.6265 35.2047C23.479 35.066 23.3054 34.988 23.1059 34.988C22.9063 34.988 22.7328 35.066 22.5853 35.2047C22.5766 35.196 22.5679 35.1874 22.5592 35.17C22.5419 35.1527 22.5245 35.1354 22.5072 35.118C22.5332 35.1007 22.5506 35.0747 22.5766 35.0574C22.6286 35.014 22.6807 34.988 22.7328 34.9534C22.8022 34.9187 22.8716 34.8927 22.941 34.884C22.9757 34.884 23.0104 34.8754 23.0451 34.8667C23.0538 34.8667 23.1319 34.8667 23.1406 34.8667C23.1666 34.8667 23.1926 34.8667 23.21 34.8667C23.2794 34.8667 23.3401 34.8927 23.4009 34.91C23.4442 34.9274 23.4876 34.9447 23.531 34.9707C23.5744 34.9967 23.6178 35.0227 23.6525 35.0574C23.6698 35.0747 23.6872 35.092 23.7132 35.1094V35.118Z" fill="white"/>
<path d="M22.7588 35.3694C22.7588 35.3694 22.6981 35.3174 22.672 35.2827C22.7675 35.1874 22.8889 35.1267 23.0191 35.1094C23.2187 35.0834 23.3922 35.1441 23.5397 35.2827C23.5137 35.3087 23.479 35.3434 23.4529 35.3694C23.3575 35.2741 23.236 35.2221 23.1059 35.2221C22.967 35.2221 22.8542 35.2741 22.7588 35.3694Z" fill="white"/>
<path d="M23.3748 35.4558L23.2881 35.5425C23.236 35.4905 23.1753 35.4645 23.1059 35.4645C23.0364 35.4645 22.9757 35.4905 22.9237 35.5425C22.8976 35.5165 22.8629 35.4818 22.8369 35.4558C22.9757 35.3171 23.2187 35.2998 23.3662 35.4558H23.3748Z" fill="white"/>
<path d="M23.1833 35.6202C23.1833 35.6202 23.1487 35.6979 23.1055 35.6979C23.0623 35.6979 23.0278 35.6634 23.0278 35.6202C23.0278 35.577 23.0623 35.5425 23.1055 35.5425C23.1487 35.5425 23.1833 35.577 23.1833 35.6202Z" fill="white"/>
<path d="M18.4292 35.2742C18.4292 35.1528 18.5333 35.0488 18.6548 35.0488C18.7762 35.0488 18.8804 35.1528 18.8804 35.2742C18.8804 35.3955 18.7762 35.4995 18.6548 35.4995C18.5333 35.4995 18.4292 35.3955 18.4292 35.2742Z" fill="white"/>
<path d="M19.132 35.2742C19.132 35.1528 19.2361 35.0488 19.3576 35.0488C19.4791 35.0488 19.5832 35.1528 19.5832 35.2742C19.5832 35.3955 19.4791 35.4995 19.3576 35.4995C19.2361 35.4995 19.132 35.3955 19.132 35.2742Z" fill="white"/>
<path d="M20.0604 35.4995C20.185 35.4995 20.286 35.3986 20.286 35.2742C20.286 35.1497 20.185 35.0488 20.0604 35.0488C19.9358 35.0488 19.8348 35.1497 19.8348 35.2742C19.8348 35.3986 19.9358 35.4995 20.0604 35.4995Z" fill="white"/>
<path d="M20.7632 35.4995C20.8878 35.4995 20.9888 35.3986 20.9888 35.2742C20.9888 35.1497 20.8878 35.0488 20.7632 35.0488C20.6386 35.0488 20.5376 35.1497 20.5376 35.2742C20.5376 35.3986 20.6386 35.4995 20.7632 35.4995Z" fill="white"/>
<path d="M21.466 35.4995C21.5906 35.4995 21.6916 35.3986 21.6916 35.2742C21.6916 35.1497 21.5906 35.0488 21.466 35.0488C21.3414 35.0488 21.2404 35.1497 21.2404 35.2742C21.2404 35.3986 21.3414 35.4995 21.466 35.4995Z" fill="white"/>
<path d="M47.3744 35.7679H45.561V34.9272H47.3744V35.7679ZM45.6478 35.6726H47.279V35.0139H45.6478V35.6726Z" fill="white"/>
<path d="M46.8798 35.0659H45.7085V35.6206H46.8798V35.0659Z" fill="white"/>
<path d="M47.5393 35.1177H47.3744V35.5683H47.5393V35.1177Z" fill="white"/>
<path d="M34.1859 65.2441C34.1859 65.8595 33.6913 66.3535 33.0753 66.3535C32.4593 66.3535 31.9647 65.8595 31.9647 65.2441C31.9647 64.6288 32.4593 64.1348 33.0753 64.1348C33.6913 64.1348 34.1859 64.6288 34.1859 65.2441Z" fill="white"/>
<path d="M37.9342 64.8711H28.199L28.3292 64.1865C28.4073 63.7705 28.6242 63.3891 28.9626 63.0944L29.4745 62.6351L30.7673 57.6777C30.9582 56.7157 31.8953 56.0137 32.9885 56.0137H33.1534C34.2466 56.0137 35.1837 56.7157 35.3746 57.6777L36.6674 62.6351L37.1793 63.0944C37.5091 63.3891 37.7347 63.7705 37.8127 64.1865L37.9429 64.8711H37.9342Z" fill="white"/>
<path d="M32.9885 57.0624C32.4072 57.0624 31.93 56.5858 31.93 56.0051C31.93 55.4244 32.4072 54.9478 32.9885 54.9478C33.5699 54.9478 34.0471 55.4244 34.0471 56.0051C34.0471 56.5858 33.5699 57.0624 32.9885 57.0624ZM32.9885 55.5891C32.7543 55.5891 32.5721 55.7798 32.5721 56.0051C32.5721 56.2304 32.763 56.4211 32.9885 56.4211C33.2141 56.4211 33.405 56.2304 33.405 56.0051C33.405 55.7798 33.2141 55.5891 32.9885 55.5891Z" fill="white"/>
<path d="M33.0666 71.3193C38.9608 71.3193 43.7389 66.5466 43.7389 60.6592C43.7389 54.7717 38.9608 49.999 33.0666 49.999C27.1725 49.999 22.3944 54.7717 22.3944 60.6592C22.3944 66.5466 27.1725 71.3193 33.0666 71.3193Z" stroke="white" stroke-miterlimit="10"/>
<path d="M22.8109 78.3827C22.8716 78.3133 22.9844 78.296 23.0538 78.3567C23.2013 78.478 23.4529 78.6167 23.6872 78.608C23.852 78.608 23.9996 78.556 24.1037 78.4867C24.2078 78.4173 24.2425 78.3306 24.2425 78.244C24.2425 78.2006 24.2338 78.1747 24.2165 78.14C24.1991 78.1053 24.1644 78.0706 24.121 78.0446C24.0256 77.984 23.8607 77.9233 23.6698 77.8886C23.5137 77.8626 23.3662 77.8193 23.2447 77.7586C23.1145 77.698 23.0104 77.62 22.9323 77.4986C22.8803 77.4206 22.8542 77.3253 22.8542 77.23C22.8542 77.0306 22.967 76.8573 23.1232 76.7446C23.2794 76.632 23.479 76.5713 23.6959 76.5713C24.0169 76.5713 24.2512 76.7273 24.416 76.84C24.4941 76.892 24.5115 76.996 24.4594 77.074C24.4074 77.152 24.3032 77.178 24.2251 77.126C24.0516 77.0133 23.8954 76.9093 23.6872 76.9093C23.5397 76.9093 23.4009 76.9526 23.3141 77.022C23.2273 77.0913 23.1839 77.1606 23.1839 77.23C23.1839 77.2733 23.1839 77.2993 23.21 77.3253C23.2273 77.3513 23.2534 77.3773 23.2967 77.412C23.3835 77.4726 23.531 77.5246 23.7132 77.5593C23.8868 77.594 24.0343 77.6373 24.1731 77.698C24.3119 77.7673 24.4247 77.854 24.5028 77.9753C24.5549 78.0533 24.5809 78.1573 24.5809 78.2613C24.5809 78.478 24.4594 78.66 24.2946 78.7727C24.1297 78.894 23.9128 78.9633 23.6785 78.9633C23.3228 78.9633 23.0191 78.7813 22.8282 78.634C22.7588 78.5733 22.7414 78.4606 22.8022 78.3913L22.8109 78.3827Z" fill="white"/>
<path d="M26.0559 78.9633C25.518 78.9633 25.0928 78.53 25.0928 78.0013V76.8226C25.0928 76.7186 25.1709 76.6406 25.275 76.6406C25.3791 76.6406 25.4572 76.7186 25.4572 76.8226V78.0013C25.4572 78.3306 25.7262 78.5907 26.0472 78.5907C26.3683 78.5907 26.6372 78.322 26.6372 78.0013V76.8226C26.6372 76.7186 26.724 76.6406 26.8195 76.6406C26.9149 76.6406 27.0017 76.7186 27.0017 76.8226V78.0013C27.0017 78.53 26.5765 78.9633 26.0386 78.9633H26.0559Z" fill="white"/>
<path d="M27.7912 78.7813V76.8226C27.7912 76.7186 27.878 76.6406 27.9734 76.6406H28.442C28.789 76.6406 29.0754 76.9266 29.0754 77.2733C29.0754 77.412 29.032 77.542 28.9452 77.6546C29.1448 77.7846 29.2836 78.0013 29.2836 78.2526C29.2836 78.6513 28.9626 78.9633 28.5721 78.9633H27.9821C27.9821 78.9633 27.9821 78.9633 27.9734 78.9633C27.878 78.9633 27.7912 78.8767 27.7912 78.7813ZM28.1556 77.542H28.442C28.5895 77.542 28.7023 77.4206 28.7023 77.2733C28.7023 77.126 28.5895 77.0133 28.442 77.0133H28.1556V77.542ZM28.1556 78.5993H28.5721C28.763 78.5993 28.9105 78.4433 28.9105 78.2526C28.9105 78.062 28.7543 77.9146 28.5721 77.9146H28.1556V78.5993Z" fill="white"/>
<path d="M29.6914 78.3827C29.7522 78.3133 29.865 78.296 29.9344 78.3567C30.0819 78.478 30.3335 78.6167 30.5678 78.608C30.7326 78.608 30.8801 78.556 30.9843 78.4867C31.0884 78.4173 31.1231 78.3306 31.1231 78.244C31.1231 78.2006 31.1144 78.1747 31.0971 78.14C31.0797 78.1053 31.045 78.0706 31.0016 78.0446C30.9062 77.984 30.7413 77.9233 30.5504 77.8886C30.3942 77.8626 30.2467 77.8193 30.1253 77.7586C29.9951 77.698 29.891 77.62 29.8129 77.4986C29.7609 77.4206 29.7348 77.3253 29.7348 77.23C29.7348 77.0306 29.8476 76.8573 30.0038 76.7446C30.16 76.632 30.3595 76.5713 30.5765 76.5713C30.8975 76.5713 31.1318 76.7273 31.2966 76.84C31.3747 76.892 31.3921 76.996 31.34 77.074C31.2879 77.152 31.1838 77.178 31.1057 77.126C30.9322 77.0133 30.776 76.9093 30.5678 76.9093C30.4203 76.9093 30.2814 76.9526 30.1947 77.022C30.1079 77.0913 30.0645 77.1606 30.0645 77.23C30.0645 77.2733 30.0645 77.2993 30.0906 77.3253C30.1079 77.3513 30.1339 77.3773 30.1773 77.412C30.2641 77.4726 30.4116 77.5246 30.5938 77.5593C30.7673 77.594 30.9148 77.6373 31.0537 77.698C31.1925 77.7673 31.3053 77.854 31.3834 77.9753C31.4354 78.0533 31.4615 78.1573 31.4615 78.2613C31.4615 78.478 31.34 78.66 31.1751 78.7727C31.0103 78.894 30.7934 78.9633 30.5591 78.9633C30.2034 78.9633 29.8997 78.7813 29.7088 78.634C29.6394 78.5733 29.622 78.4606 29.6828 78.3913L29.6914 78.3827Z" fill="white"/>
<path d="M31.8779 77.7673C31.8779 77.1086 32.4332 76.5713 33.1013 76.5713C33.3963 76.5713 33.6566 76.6666 33.8649 76.8313C33.943 76.9006 33.9603 77.0133 33.8996 77.1C33.8302 77.1866 33.7087 77.1953 33.6306 77.1346C33.4831 77.0133 33.3009 76.9526 33.0927 76.9526C32.8671 76.9526 32.6501 77.048 32.494 77.1953C32.3465 77.3513 32.251 77.5506 32.251 77.776C32.251 78.0013 32.3465 78.2093 32.494 78.3567C32.6501 78.504 32.8671 78.5993 33.0927 78.5993C33.3009 78.5993 33.4744 78.5387 33.6306 78.4173C33.7087 78.3567 33.8302 78.374 33.8996 78.452C33.9603 78.5387 33.943 78.6513 33.8649 78.7207C33.6566 78.8853 33.3877 78.9807 33.1013 78.9807C32.4332 78.9807 31.8866 78.4433 31.8779 77.7846V77.7673Z" fill="white"/>
<path d="M36.0774 78.6861C36.1121 78.7814 36.0601 78.8854 35.9646 78.9201C35.9473 78.9201 35.9212 78.9288 35.8952 78.9288C35.8952 78.9288 35.8085 78.9288 35.7651 78.8941C35.7217 78.8681 35.687 78.8248 35.6609 78.7814C35.6176 78.6861 35.5915 78.5648 35.5915 78.3828C35.5915 78.3221 35.5742 78.2788 35.5482 78.2441C35.5308 78.2094 35.4874 78.1748 35.444 78.1488C35.3746 78.1054 35.2879 78.0794 35.2618 78.0708H34.8714V78.7901C34.8714 78.8854 34.7846 78.9721 34.6892 78.9721C34.5937 78.9721 34.507 78.8854 34.507 78.7901V76.8314C34.507 76.7274 34.585 76.6494 34.6892 76.6494H35.2879C35.687 76.6494 35.9993 76.9701 35.9993 77.3601C35.9993 77.5768 35.9039 77.7674 35.739 77.9061C35.7824 77.9408 35.8258 77.9754 35.8518 78.0274C35.9212 78.1228 35.9646 78.2441 35.9646 78.3828C35.9646 78.4781 35.9646 78.5474 35.982 78.5821C36.034 78.5994 36.0774 78.6428 36.0948 78.6948L36.0774 78.6861ZM35.6089 77.3514C35.6089 77.1608 35.4527 77.0047 35.2705 77.0047H34.8627V77.6894H35.2705C35.4614 77.6894 35.6089 77.5334 35.6089 77.3514Z" fill="white"/>
<path d="M36.6327 76.8226C36.6327 76.7186 36.7108 76.6406 36.8149 76.6406C36.919 76.6406 36.9971 76.7186 36.9971 76.8226V78.7813C36.9971 78.8853 36.9104 78.9633 36.8149 78.9633C36.7195 78.9633 36.6327 78.8853 36.6327 78.7813V76.8226Z" fill="white"/>
<path d="M37.6219 78.7813V76.8226C37.6219 76.7186 37.7086 76.6406 37.8041 76.6406H38.2726C38.6197 76.6406 38.906 76.9266 38.906 77.2733C38.906 77.412 38.8626 77.542 38.7758 77.6546C38.9754 77.7846 39.1142 78.0013 39.1142 78.2526C39.1142 78.6513 38.7932 78.9633 38.4028 78.9633H37.8127C37.8127 78.9633 37.8127 78.9633 37.8041 78.9633C37.7086 78.9633 37.6219 78.8767 37.6219 78.7813ZM37.9863 77.542H38.2726C38.4201 77.542 38.5329 77.4206 38.5329 77.2733C38.5329 77.126 38.4201 77.0133 38.2726 77.0133H37.9863V77.542ZM37.9863 78.5993H38.4028C38.5936 78.5993 38.7411 78.4433 38.7411 78.2526C38.7411 78.062 38.585 77.9146 38.4028 77.9146H37.9863V78.5993Z" fill="white"/>
<path d="M39.5915 78.7813V76.8226C39.5915 76.7186 39.6696 76.6406 39.7737 76.6406H40.8582C40.9537 76.6406 41.0405 76.7186 41.0405 76.8226C41.0405 76.9266 40.9537 77.0046 40.8582 77.0046H39.9559V77.6113H40.7281C40.8235 77.6113 40.9103 77.698 40.9103 77.7933C40.9103 77.8973 40.8235 77.9753 40.7281 77.9753H39.9559V78.582H40.8582C40.9537 78.582 41.0405 78.6687 41.0405 78.764C41.0405 78.8593 40.9537 78.946 40.8582 78.946H39.7823C39.6782 78.946 39.6001 78.868 39.6001 78.764L39.5915 78.7813Z" fill="white"/>
<path d="M41.5611 78.7813V76.8226C41.5611 76.7186 41.6392 76.6406 41.7433 76.6406H42.1337C42.7758 76.6406 43.2964 77.1606 43.2964 77.802C43.2964 78.4433 42.7758 78.9633 42.1337 78.9633H41.7433C41.6392 78.9633 41.5611 78.8767 41.5611 78.7813ZM41.9255 78.5993H42.1337C42.5762 78.5993 42.9233 78.244 42.9233 77.802C42.9233 77.36 42.5676 77.0133 42.1337 77.0133H41.9255V78.5993Z" fill="white"/>
<path d="M68.797 112.27C68.797 112.27 69.1267 98.0735 67.886 91.7987C66.6539 85.5326 53.4481 63.857 48.5978 66.4397C42.342 69.7764 47.4959 83.7906 50.9232 90.3167C50.9232 90.3167 36.4332 98.0215 37.9603 108.872C39.4787 119.732 68.797 112.261 68.797 112.261V112.27Z" fill="#F7A9A0"/>
<path d="M47.1749 67.9306C43.6608 75.0894 48.7106 83.3748 51.5566 89.9529C51.7735 90.4556 51.4438 90.8023 51.0273 90.8976C45.1706 94.529 37.9689 101.358 37.5872 108.621C37.5785 108.838 37.2748 108.847 37.2575 108.63C36.6067 100.786 43.1315 93.5063 49.8039 89.9356C46.7757 83.2275 42.0817 74.6994 47.1054 67.8959C47.1315 67.8613 47.1922 67.8873 47.1749 67.9306Z" fill="#263238"/>
<path d="M70.3848 137.447L109.482 153.42C109.482 153.42 120.432 119.619 122.297 100.969C123.338 90.5164 117.204 90.239 109.629 95.9764C83.1221 116.057 70.3848 137.447 70.3848 137.447Z" fill="#455A64"/>
<path d="M122.019 103.343C121.985 103.62 121.95 103.898 121.907 104.175C118.358 104.686 114.792 105.12 111.2 105.414C106.792 105.77 102.358 105.908 97.9418 105.631C98.1674 105.432 98.3843 105.232 98.6099 105.033C102.783 105.198 106.974 105.007 111.139 104.669C114.783 104.366 118.401 103.889 122.019 103.343ZM116.492 97.7096C115.148 96.505 113.82 95.2829 112.493 94.0522C112.414 94.0956 112.336 94.1389 112.258 94.1909C113.603 95.4303 114.939 96.687 116.284 97.935C118.167 99.6683 120.076 101.384 122.063 103.005C122.08 102.849 122.106 102.702 122.124 102.554C120.197 101.012 118.332 99.3737 116.492 97.7096ZM103.729 129.707C101.17 129.621 98.5752 129.751 96.0416 130.219C93.4994 130.678 91.0612 131.484 88.6058 132.247C83.7382 133.885 79.0788 136.086 74.567 138.522C74.3414 138.643 74.1158 138.764 73.8989 138.894L74.7926 139.258C74.8359 139.224 74.8793 139.206 74.9227 139.18C79.3998 136.745 83.9985 134.509 88.8053 132.827C91.2261 132.039 93.6469 131.207 96.1371 130.739C98.6273 130.236 101.178 130.08 103.72 130.141C107.798 130.236 111.842 130.947 115.798 131.961C115.824 131.848 115.85 131.744 115.885 131.631C111.92 130.583 107.859 129.837 103.729 129.707Z" fill="#37474F"/>
<path d="M110.575 144.415C104.345 141.434 87.1915 133.885 75.3652 130.54C75.2958 130.523 75.1743 130.8 75.2437 130.826C84.6058 135.194 103.92 142.439 110.401 144.823C110.523 144.866 110.696 144.467 110.575 144.407V144.415Z" fill="#263238"/>
<path d="M120.145 118.727C119.356 120.729 118.601 122.731 117.855 124.75C117.907 124.499 117.976 124.256 118.028 124.005C118.67 121.145 119.295 118.276 119.85 115.399C119.868 115.329 119.746 115.303 119.729 115.373C117.108 125.34 110.054 150.473 109.49 153.247C109.265 153.195 105.456 151.661 104.953 151.583C104.848 151.565 104.753 151.773 104.857 151.799C105.117 151.86 110.046 153.949 110.072 153.879C112.085 149.113 116.458 130.704 117.412 126.622C118.471 124.048 119.408 121.431 120.206 118.762C120.215 118.727 120.163 118.71 120.154 118.744L120.145 118.727Z" fill="#263238"/>
<path d="M120.944 94.9881C121.638 96.9121 132.596 108.621 141.585 107.13C144.509 106.636 142.548 90.568 142.548 90.568L142.679 89.346L144.431 72.2724L123.382 62.037L120.362 60.7109C120.362 60.7109 120.189 65.417 120.033 71.2758C120.024 71.5444 120.015 71.8218 120.006 72.1078C119.989 72.4371 119.972 72.7491 119.963 73.0611C119.928 73.9365 119.894 74.8291 119.885 75.7218C119.876 76.3978 119.859 77.0565 119.868 77.7672C119.868 78.4865 119.868 79.1799 119.868 79.8906C119.963 86.9367 120.657 94.1734 120.944 94.9881Z" fill="#F7A9A0"/>
<path d="M120.024 71.2758C126.358 83.9553 137.594 88.1067 142.67 89.346L144.423 72.2724L123.373 62.037L120.354 60.7109C120.354 60.7109 120.18 65.417 120.024 71.2758Z" fill="#263238"/>
<path d="M163.806 44.1143C171.173 73.33 154.487 81.0348 148.18 82.6208C142.453 84.0595 122.766 88.2109 112.414 59.9138C102.063 31.6167 113.334 18.9546 126.254 14.9852C139.182 11.0071 156.431 14.8985 163.797 44.1143H163.806Z" fill="#F7A9A0"/>
<path d="M154.461 38.6455C153.75 38.7062 153.09 38.6455 152.379 38.6195C151.581 38.6022 150.939 38.6715 150.262 38.1862C149.897 37.9262 149.793 37.2849 150.01 36.9035C150.514 36.0195 151.503 35.8028 152.466 35.7855C153.507 35.7682 154.323 36.0195 155.138 36.6608C155.936 37.2849 155.407 38.5675 154.47 38.6455H154.461Z" fill="#263238"/>
<path d="M135.555 42.9182C136.232 42.7016 136.822 42.3896 137.473 42.1035C138.201 41.7829 138.817 41.6009 139.269 40.8989C139.512 40.5262 139.355 39.8848 139.008 39.6162C138.201 38.9922 137.212 39.1655 136.319 39.5122C135.347 39.8935 134.696 40.4395 134.184 41.3409C133.69 42.2249 134.67 43.2042 135.564 42.9182H135.555Z" fill="#263238"/>
<path d="M140.978 49.6003C140.943 49.531 140.839 49.7303 140.865 49.8083C141.377 51.793 141.62 54.1591 139.963 55.2251C139.911 55.2598 139.937 55.3551 140.006 55.3291C142.149 54.5231 141.785 51.3944 140.987 49.5917L140.978 49.6003Z" fill="#263238"/>
<path d="M138.722 47.9016C135.442 48.3783 136.631 54.887 139.668 54.4537C142.661 54.0204 141.472 47.5116 138.722 47.9016Z" fill="#263238"/>
<path d="M137.507 48.4821C137.004 48.9501 136.562 49.7042 135.893 49.9035C135.113 50.1288 134.392 49.5568 133.75 48.9935C133.681 48.9328 133.637 49.0021 133.655 49.0888C133.863 50.3368 134.575 51.5329 135.954 51.4809C137.204 51.4289 137.88 50.1635 137.967 48.8548C137.984 48.6121 137.716 48.3088 137.516 48.4995L137.507 48.4821Z" fill="#263238"/>
<path d="M152.353 46.2462C152.353 46.1682 152.527 46.3155 152.544 46.4022C152.83 48.4302 153.507 50.7096 155.451 51.0649C155.511 51.0736 155.52 51.1776 155.451 51.1776C153.16 51.2556 152.301 48.2222 152.353 46.2462Z" fill="#263238"/>
<path d="M153.793 43.8281C157.004 43.0134 158.392 49.4875 155.424 50.2415C152.5 50.9782 151.104 44.5041 153.793 43.8281Z" fill="#263238"/>
<path d="M155.234 43.9583C155.824 44.1923 156.457 44.7036 157.082 44.617C157.802 44.513 158.175 43.6983 158.487 42.9269C158.522 42.8489 158.583 42.8923 158.6 42.9789C158.904 44.2096 158.765 45.5876 157.628 46.0817C156.587 46.5323 155.563 45.6396 155.008 44.4696C154.904 44.253 155.008 43.8716 155.242 43.9583H155.234Z" fill="#263238"/>
<path d="M144.041 65.5734C144.596 65.9807 145.169 66.5701 145.915 66.5354C146.635 66.5007 147.416 66.0674 148.032 65.7294C148.093 65.6947 148.171 65.7554 148.136 65.8247C147.711 66.6741 146.67 67.3154 145.707 67.2807C144.761 67.2461 144.197 66.5094 143.859 65.7034C143.815 65.5907 143.963 65.5214 144.041 65.5821V65.5734Z" fill="#263238"/>
<path d="M151.91 56.1439C151.91 56.1439 152.917 59.082 153.195 60.512C153.221 60.642 148.986 62.4534 145.273 59.6627C145.134 59.5587 145.299 59.3593 145.446 59.4287C147.598 60.4427 149.741 60.3907 151.989 60.0007C152.015 59.5847 150.097 55.0259 150.323 54.9566C151.086 54.7399 152.726 54.9739 153.707 55.0606C151.789 48.8725 148.891 43.0484 147.078 36.8603C147.017 36.635 147.329 36.505 147.433 36.6957C150.904 42.5891 153.264 49.6612 155.407 55.9966C155.685 56.7853 152.535 56.2826 151.919 56.1526L151.91 56.1439Z" fill="#263238"/>
<path d="M151.216 60.7374C151.216 60.7374 150.262 62.6441 148.657 63.5454C148.067 63.8834 147.399 64.0914 146.661 64.0221C145.134 63.8921 144.856 62.5574 144.926 61.3701C144.978 60.3907 145.273 59.498 145.273 59.498C145.273 59.498 147.754 61.1187 151.216 60.7287V60.7374Z" fill="#263238"/>
<path d="M148.657 63.5541C148.067 63.8921 147.399 64.1001 146.661 64.0308C145.134 63.9008 144.856 62.5661 144.926 61.3788C146.522 61.2661 148.258 62.0548 148.657 63.5541Z" fill="#FF9ABB"/>
<path d="M142.93 18.9892C142.93 18.9892 144.188 23.4613 142.679 26.7286C139.59 33.4454 131.512 31.816 128.805 34.5028C126.262 37.0161 127.243 42.1295 124.952 44.6342C121.768 48.1096 117.351 46.8529 116.857 49.167C116.362 51.481 114.939 58.8478 112.015 59.8271C109.083 60.8065 92.9181 20.4625 133.308 13.1218C133.308 13.1218 138.557 10.8771 146.809 14.8811C155.06 18.8765 160.761 34.2168 160.761 34.2168C160.761 34.2168 159.884 33.8701 158.557 32.7261C156.674 31.1227 155.936 29.6147 154.557 28.5833C152.396 26.954 151.234 27.604 148.986 26.018C145.559 23.5999 142.939 18.9892 142.939 18.9892H142.93Z" fill="#263238"/>
<path d="M142.314 16.8745C142.939 18.7812 143.364 20.7572 143.529 22.7333C143.711 24.692 143.642 26.746 142.8 28.4534C141.95 30.1174 140.223 31.2701 138.436 31.9547C136.614 32.6567 134.601 32.8821 132.648 33.6968C131.694 34.1388 130.748 34.7281 130.097 35.6728C129.464 36.6001 129.221 37.6575 129.013 38.6455C128.64 40.6215 128.249 42.5716 126.965 44.0016C125.698 45.4229 123.807 46.3069 121.846 46.2463C119.911 46.2809 117.759 45.7696 115.876 46.6536C117.82 45.9256 119.807 46.593 121.837 46.7143C123.911 46.8703 126.037 46.0209 127.503 44.5043C129.056 42.9616 129.455 40.7429 129.863 38.8362C130.071 37.8742 130.332 36.9295 130.852 36.2015C131.347 35.4821 132.18 34.9534 133.039 34.5808C134.792 33.8094 136.831 33.5408 138.757 32.7781C139.72 32.3967 140.657 31.8941 141.473 31.2354C142.279 30.5941 143.06 29.788 143.468 28.7914C144.318 26.824 144.275 24.692 143.997 22.6986C143.668 20.6966 143.086 18.7552 142.314 16.9005V16.8745Z" fill="#263238"/>
<path d="M143.078 18.6167C143.477 20.4454 144.145 22.2048 145.021 23.8861C145.889 25.5588 147.216 27.1188 148.943 28.0635C149.811 28.5488 150.791 28.7915 151.616 29.0515C152.405 29.3202 153.247 29.7969 153.715 30.4122C154.227 31.1142 154.713 31.9982 155.425 32.6569C156.136 33.3069 156.995 33.7836 157.889 34.0436C157.073 33.5843 156.318 33.0556 155.763 32.3362C155.164 31.6602 154.817 30.8542 154.323 30.0049C153.733 29.0689 152.839 28.6182 151.919 28.2282C150.991 27.8902 150.149 27.6908 149.394 27.2488C147.85 26.3908 146.635 25.0561 145.672 23.5134C144.683 21.9794 143.859 20.3241 143.069 18.634L143.078 18.6167Z" fill="#263238"/>
<path d="M117.542 59.9829C117.542 59.9829 109.542 51.7495 105.699 54.7482C101.855 57.7469 108.918 70.4091 114.167 71.4578C119.416 72.4978 120.475 67.6617 120.475 67.6617L117.542 59.9916V59.9829Z" fill="#F7A9A0"/>
<path d="M107.816 58.319C107.738 58.319 107.738 58.4403 107.816 58.4576C111.512 59.2983 113.863 62.219 115.686 65.3477C114.445 64.2297 112.926 63.7531 111.399 65.2611C111.321 65.3391 111.425 65.4691 111.521 65.4344C112.892 64.8971 113.959 64.9837 115.104 65.9631C115.911 66.6564 116.545 67.6011 117.187 68.4505C117.395 68.7365 117.933 68.4765 117.759 68.1385C117.751 68.1125 117.733 68.0864 117.716 68.0604C117.091 63.6231 112.649 57.9896 107.825 58.319H107.816Z" fill="#263238"/>
<path d="M116.857 69.6551C116.918 70.3311 116.414 70.9204 115.738 70.9724C115.061 71.0331 114.471 70.5304 114.41 69.8544C114.349 69.1784 114.853 68.5891 115.529 68.5284C116.206 68.4677 116.796 68.9704 116.857 69.6464V69.6551Z" fill="white"/>
<path d="M113.681 67.9218C113.725 68.4072 113.36 68.8318 112.874 68.8752C112.388 68.9185 111.963 68.5545 111.92 68.0692C111.877 67.5838 112.241 67.1591 112.727 67.1158C113.213 67.0725 113.638 67.4365 113.681 67.9218Z" fill="white"/>
<path d="M105.907 58.1629H104.085C103.729 58.1629 103.443 57.8683 103.443 57.5129C103.443 57.1576 103.729 56.8716 104.094 56.8716H105.916C106.271 56.8716 106.558 57.1576 106.558 57.5216C106.558 57.8769 106.271 58.1629 105.916 58.1629H105.907Z" fill="#FFC727"/>
<path d="M106.141 60.026L104.363 60.4074C104.015 60.4854 103.668 60.26 103.599 59.9134C103.521 59.5667 103.746 59.22 104.094 59.1507L105.872 58.7694C106.219 58.6914 106.566 58.9167 106.636 59.2634C106.714 59.61 106.488 59.9567 106.141 60.026Z" fill="#FFC727"/>
<path d="M108.432 96.8864C109.326 95.9938 117.343 88.939 128.657 89.6323C140.509 90.3517 151.39 98.7845 151.39 98.7845C151.39 98.7845 154.921 110.935 144.327 112.001C129.559 113.483 108.432 96.8864 108.432 96.8864Z" fill="#F7A9A0"/>
</g>
<defs>
<clipPath id="clip0_105_1614">
<rect width="238" height="269" fill="white"/>
</clipPath>
</defs>
</svg>
