<svg width="" height="" viewBox="0 0 668 332" fill="none" xmlns="http://www.w3.org/2000/svg">
<path opacity="0.6" d="M484.658 0.782684H442.376V329.277H484.658V0.782684Z" fill="white"/>
<path opacity="0.6" d="M425.611 100.982H383.329V329.277H425.611V100.982Z" fill="white"/>
<path opacity="0.6" d="M544.557 71.9532H502.275V329.277H544.557V71.9532Z" fill="white"/>
<path opacity="0.6" d="M366.564 61.8344H324.283V329.277H366.564V61.8344Z" fill="white"/>
<path opacity="0.6" d="M307.518 141.129H265.236V329.275H307.518V141.129Z" fill="white"/>
<g style="mix-blend-mode:multiply" opacity="0.3">
<path d="M484.658 76.4916H442.376V329.277H484.658V76.4916Z" fill="#9BC1F9"/>
</g>
<g style="mix-blend-mode:multiply" opacity="0.3">
<path d="M425.611 153.596H383.329V329.275H425.611V153.596Z" fill="#9BC1F9"/>
</g>
<g style="mix-blend-mode:multiply" opacity="0.3">
<path d="M544.557 131.26H502.275V329.277H544.557V131.26Z" fill="#9BC1F9"/>
</g>
<g style="mix-blend-mode:multiply" opacity="0.3">
<path d="M366.564 123.473H324.283V329.277H366.564V123.473Z" fill="#9BC1F9"/>
</g>
<g style="mix-blend-mode:multiply" opacity="0.3">
<path d="M307.517 184.493H265.236V329.277H307.517V184.493Z" fill="#9BC1F9"/>
</g>
<path d="M565.107 3.29649L531.415 28.8709L544.266 29.6948L463.842 171.771L419.313 104.76L356.319 252.245L315.801 194.478L265.299 266.133L268.476 278.959L315.78 212.168L358.61 273.23L421.372 126.285L464.578 191.306L553.617 34.0087L561.883 42.9331L565.107 3.29649Z" fill="#5183BF"/>
<path d="M226.779 234.292C178.432 195.647 137.808 145.665 107.05 86.9747C84.8842 104.847 62.7179 122.721 40.5517 140.593C76.1156 208.451 123.083 266.246 178.984 310.927C194.916 285.382 210.848 259.837 226.777 234.292H226.779Z" fill="#3C8F7C"/>
<path d="M96.6383 100.988C82.8693 112.267 69.1003 123.547 55.3313 134.826C58.61 140.961 57.4201 149.24 52.5357 153.439C83.7997 208.926 122.98 257.135 168.604 296.255C172.334 290.636 179.366 289.546 184.417 293.661C194.462 277.8 204.51 261.938 214.555 246.078C209.904 242.291 209.242 234.551 212.97 228.934C172.904 194.582 138.498 152.247 111.044 103.521C106.162 107.716 99.6575 106.634 96.6383 100.988Z" fill="#96D9C9"/>
<path d="M152.284 227.829C162.608 214.457 162.508 194.73 152.771 182.93C143.007 171.159 126.326 170.604 114.785 182.504C103.263 194.378 102.162 215.489 113.14 228.74C124.102 242.008 141.984 241.179 152.286 227.829H152.284Z" fill="#50BFA5"/>
<path d="M190.373 262.239C179.356 252.77 168.739 242.734 158.548 232.164C156.801 234.445 155.054 236.724 153.309 239.002C163.643 249.721 174.408 259.897 185.58 269.499C187.177 267.078 188.776 264.657 190.373 262.239Z" fill="#50BFA5"/>
<path d="M216.922 218.712C156.196 210.982 96.6383 190.588 41.3893 158.603C30.8864 183.302 20.3834 208.004 9.88051 232.706C73.761 269.687 142.621 293.267 212.835 302.206C214.198 274.374 215.559 246.544 216.922 218.712Z" fill="#3C8F7C"/>
<path d="M39.1929 174.664C32.7557 190.149 26.3164 205.632 19.8792 221.118C25.7109 224.432 28.7111 231.565 26.5232 237.215C80.6476 266.417 138.091 286.087 196.688 295.486C197.184 289.256 202.746 285.056 209.128 285.924C210.107 268.571 211.086 251.218 212.065 233.863C206.191 233.062 201.845 227.234 202.338 221.01C150.881 212.757 100.438 195.482 52.9071 169.84C50.7212 175.486 44.5541 177.714 39.1887 174.664H39.1929Z" fill="#96D9C9"/>
<path d="M149.212 248.926C151.645 233.418 141.948 217.808 127.759 213.062C113.564 208.352 98.8346 215.827 94.6318 230.747C90.431 245.637 99.7609 262.912 115.73 268.222C131.696 273.55 146.788 264.41 149.212 248.926Z" fill="#50BFA5"/>
<path d="M189.036 95.6979C187.563 95.2023 186.114 94.6411 184.713 93.9655C183.13 93.201 181.079 92.3073 179.784 92.1082C177.056 91.6868 172.372 91.9684 169.785 94.7745C166.561 98.2731 160.835 95.4056 161.989 113.724C163.295 134.46 174.822 132.183 175.1 131.834C175.381 131.482 185.379 118.568 185.379 118.568C185.379 118.568 188.875 126.219 188.875 125.938C188.875 125.656 206.727 101.655 189.038 95.6957L189.036 95.6979Z" fill="#0E2E35"/>
<path d="M201.184 232.397C153.406 251.345 100.689 260.007 45.8116 257.927C49.4532 281.365 53.0949 304.804 56.7386 328.244C120.189 330.65 181.141 320.635 236.383 298.726C224.65 276.616 212.917 254.507 201.184 232.399V232.397Z" fill="#3C8F7C"/>
<path d="M51.5568 271.265C53.9472 285.899 56.3356 300.531 58.7261 315.165C64.4902 315.336 69.9379 319.629 70.9275 324.902C123.714 325.29 174.56 316.935 221.549 300.154C219.061 295.126 221.192 289.59 226.241 287.642C219.019 273.802 211.799 259.964 204.577 246.125C199.931 247.916 194.099 245.189 191.614 240.165C150.349 254.903 105.7 262.239 59.3443 261.898C60.3338 267.167 56.8589 271.424 51.5546 271.267L51.5568 271.265Z" fill="#96D9C9"/>
<path d="M165.669 283.595C160.35 270.587 146.148 262.482 133.641 264.632C121.144 266.815 113.834 278.65 117.591 291.928C121.341 305.183 136.036 314.728 150.098 312.282C164.167 309.853 170.984 296.577 165.669 283.595Z" fill="#50BFA5"/>
<path d="M138.146 268.361C138.646 269.899 139.146 271.436 139.646 272.974C145.03 273.097 148.993 276.017 150.375 280.035C151.761 284.086 150.45 286.97 145.6 289.719C142.161 291.763 140.823 292.928 141.289 294.427C141.682 295.694 143.06 296.833 146.094 296.382C147.739 296.136 149.009 295.672 149.997 295.185C151.313 294.535 153.109 295.126 153.97 296.492C154.801 297.811 154.432 299.374 153.122 299.978C152.05 300.471 150.718 300.916 149.033 301.251C149.461 302.578 149.887 303.904 150.313 305.232C148.765 305.469 147.212 305.698 145.659 305.918C145.212 304.485 144.764 303.049 144.315 301.615C138.962 301.378 135.105 298.584 133.93 294.592C132.631 290.187 135.333 287.521 139.694 285.194C142.709 283.576 143.796 282.256 143.237 280.541C142.644 278.732 140.574 278.014 138.015 278.385C136.257 278.639 134.7 279.211 133.392 279.908C132.105 280.592 130.295 279.933 129.478 278.503C129.449 278.45 129.419 278.4 129.39 278.347C128.649 277.049 128.987 275.583 130.151 274.988C131.548 274.274 133.312 273.658 135.194 273.302C134.743 271.868 134.291 270.435 133.837 269.001C135.276 268.798 136.715 268.586 138.15 268.366L138.146 268.361Z" fill="#3C8F7C"/>
<path d="M206.155 270.31C194.791 274.353 183.187 277.872 171.376 280.861C172.29 283.069 173.201 285.276 174.115 287.485C186.092 284.454 197.857 280.886 209.381 276.786C208.307 274.628 207.231 272.468 206.157 270.31H206.155Z" fill="#50BFA5"/>
<path d="M122.355 309.696V326.867C122.355 329.644 153.206 331.893 191.262 331.893C229.317 331.893 260.168 329.642 260.168 326.867V309.696H122.353H122.355Z" fill="#E59F39"/>
<path d="M172.222 331.7V309.698H122.355V326.87C122.355 329.163 143.427 331.099 172.222 331.702V331.7Z" fill="#EAB054"/>
<path d="M174.543 331.745C179.896 331.842 185.495 331.893 191.262 331.893C199.853 331.893 208.077 331.779 215.662 331.569V309.696H174.541V331.745H174.543Z" fill="#EAB054"/>
<path d="M218.424 331.489C242.975 330.72 260.168 328.941 260.168 326.867V309.696H218.424V331.486V331.489Z" fill="#EAB054"/>
<path d="M191.262 314.54C229.318 314.54 260.168 312.29 260.168 309.514C260.168 306.739 229.318 304.489 191.262 304.489C153.206 304.489 122.356 306.739 122.356 309.514C122.356 312.29 153.206 314.54 191.262 314.54Z" fill="#E59F39"/>
<path d="M248.004 309.514C248.004 311.439 222.6 313 191.262 313C159.924 313 134.519 311.439 134.519 309.514C134.519 307.589 159.924 306.031 191.262 306.031C222.6 306.031 248.004 307.591 248.004 309.514Z" fill="#F7CC7F"/>
<path d="M110.566 291.528V308.699C110.566 311.475 141.416 313.724 179.472 313.724C217.527 313.724 248.378 311.473 248.378 308.699V291.528H110.563H110.566Z" fill="#E59F39"/>
<path d="M160.432 313.53V291.528H110.566V308.699C110.566 310.992 131.637 312.928 160.432 313.53Z" fill="#EAB054"/>
<path d="M162.753 313.576C168.106 313.674 173.705 313.724 179.472 313.724C188.063 313.724 196.287 313.61 203.872 313.4V291.528H162.751V313.576H162.753Z" fill="#EAB054"/>
<path d="M206.634 313.318C231.185 312.549 248.38 310.77 248.38 308.697V291.526H206.634V313.316V313.318Z" fill="#EAB054"/>
<path d="M179.472 296.371C217.528 296.371 248.378 294.121 248.378 291.346C248.378 288.57 217.528 286.32 179.472 286.32C141.416 286.32 110.566 288.57 110.566 291.346C110.566 294.121 141.416 296.371 179.472 296.371Z" fill="#E59F39"/>
<path d="M236.217 291.346C236.217 293.271 210.812 294.83 179.474 294.83C148.136 294.83 122.731 293.269 122.731 291.346C122.731 289.423 148.136 287.86 179.474 287.86C210.812 287.86 236.217 289.421 236.217 291.346Z" fill="#F7CC7F"/>
<path d="M118.421 272.877V290.048C118.421 292.824 149.271 295.073 187.327 295.073C225.382 295.073 256.233 292.824 256.233 290.048V272.877H118.418H118.421Z" fill="#E59F39"/>
<path d="M168.287 294.878V272.876H118.421V290.047C118.421 292.341 139.492 294.277 168.287 294.878Z" fill="#EAB054"/>
<path d="M170.608 294.923C175.961 295.02 181.56 295.071 187.327 295.071C195.918 295.071 204.142 294.957 211.727 294.747V272.874H170.606V294.923H170.608Z" fill="#EAB054"/>
<path d="M214.489 294.666C239.04 293.898 256.233 292.119 256.233 290.045V272.874H214.489V294.664V294.666Z" fill="#EAB054"/>
<path d="M187.327 277.718C225.383 277.718 256.233 275.468 256.233 272.692C256.233 269.917 225.383 267.667 187.327 267.667C149.271 267.667 118.42 269.917 118.42 272.692C118.42 275.468 149.271 277.718 187.327 277.718Z" fill="#E59F39"/>
<path d="M244.072 272.692C244.072 274.617 218.667 276.176 187.329 276.176C155.991 276.176 130.586 274.615 130.586 272.692C130.586 270.769 155.991 269.206 187.329 269.206C218.667 269.206 244.072 270.767 244.072 272.692Z" fill="#F7CC7F"/>
<path d="M110.566 254.479V271.65C110.566 274.427 141.416 276.676 179.472 276.676C217.527 276.676 248.378 274.425 248.378 271.65V254.479H110.563H110.566Z" fill="#E59F39"/>
<path d="M160.432 276.481V254.479H110.566V271.65C110.566 273.944 131.637 275.879 160.432 276.483V276.481Z" fill="#EAB054"/>
<path d="M162.753 276.525C168.106 276.623 173.705 276.674 179.472 276.674C188.063 276.674 196.287 276.559 203.872 276.35V254.477H162.751V276.525H162.753Z" fill="#EAB054"/>
<path d="M206.634 276.269C231.185 275.5 248.38 273.722 248.38 271.648V254.477H206.634V276.267V276.269Z" fill="#EAB054"/>
<path d="M179.472 259.323C217.528 259.323 248.378 257.073 248.378 254.297C248.378 251.522 217.528 249.272 179.472 249.272C141.416 249.272 110.566 251.522 110.566 254.297C110.566 257.073 141.416 259.323 179.472 259.323Z" fill="#E59F39"/>
<path d="M236.217 254.297C236.217 256.222 210.812 257.783 179.474 257.783C148.136 257.783 122.731 256.222 122.731 254.297C122.731 252.372 148.136 250.813 179.474 250.813C210.812 250.813 236.217 252.374 236.217 254.297Z" fill="#F7CC7F"/>
<path d="M593.016 308.231V324.743C593.016 327.412 563.35 329.576 526.752 329.576C490.154 329.576 460.487 327.412 460.487 324.743V308.231H593.016Z" fill="#E59F39"/>
<path d="M545.061 329.388V308.229H593.016V324.741C593.016 326.948 572.753 328.807 545.061 329.388Z" fill="#EAB054"/>
<path d="M542.831 329.432C537.683 329.525 532.299 329.576 526.754 329.576C518.492 329.576 510.582 329.466 503.288 329.265V308.231H542.831V329.432Z" fill="#EAB054"/>
<path d="M500.632 329.187C477.022 328.447 460.487 326.736 460.487 324.743V308.231H500.632V329.187Z" fill="#EAB054"/>
<path d="M526.752 312.888C563.349 312.888 593.016 310.724 593.016 308.055C593.016 305.386 563.349 303.222 526.752 303.222C490.155 303.222 460.487 305.386 460.487 308.055C460.487 310.724 490.155 312.888 526.752 312.888Z" fill="#E59F39"/>
<path d="M472.184 308.055C472.184 309.906 496.614 311.405 526.752 311.405C556.889 311.405 581.319 309.906 581.319 308.055C581.319 306.204 556.889 304.705 526.752 304.705C496.614 304.705 472.184 306.204 472.184 308.055Z" fill="#F7CC7F"/>
<path d="M604.355 290.757V307.269C604.355 309.938 574.688 312.102 538.09 312.102C501.492 312.102 471.826 309.938 471.826 307.269V290.757H604.355Z" fill="#E59F39"/>
<path d="M556.4 311.916V290.757H604.355V307.269C604.355 309.476 584.092 311.336 556.4 311.916Z" fill="#EAB054"/>
<path d="M554.167 311.96C549.019 312.054 543.635 312.104 538.09 312.104C529.828 312.104 521.918 311.994 514.624 311.793V290.759H554.167V311.96Z" fill="#EAB054"/>
<path d="M511.968 311.713C488.359 310.973 471.824 309.262 471.824 307.269V290.757H511.968V311.713Z" fill="#EAB054"/>
<path d="M538.09 295.414C574.687 295.414 604.355 293.25 604.355 290.581C604.355 287.912 574.687 285.748 538.09 285.748C501.493 285.748 471.826 287.912 471.826 290.581C471.826 293.25 501.493 295.414 538.09 295.414Z" fill="#E59F39"/>
<path d="M538.09 293.932C568.227 293.932 592.658 292.432 592.658 290.581C592.658 288.731 568.227 287.231 538.09 287.231C507.953 287.231 483.523 288.731 483.523 290.581C483.523 292.432 507.953 293.932 538.09 293.932Z" fill="#F7CC7F"/>
<path d="M596.802 272.819V289.332C596.802 292 567.135 294.165 530.537 294.165C493.939 294.165 464.272 292 464.272 289.332V272.819H596.802Z" fill="#E59F39"/>
<path d="M548.846 293.978V272.819H596.802V289.332C596.802 291.538 576.538 293.398 548.846 293.978Z" fill="#EAB054"/>
<path d="M546.614 294.023C541.466 294.116 536.082 294.167 530.537 294.167C522.275 294.167 514.365 294.057 507.071 293.855V272.821H546.614V294.023Z" fill="#EAB054"/>
<path d="M504.415 293.775C480.805 293.036 464.27 291.325 464.27 289.332V272.819H504.415V293.775Z" fill="#EAB054"/>
<path d="M530.535 277.478C567.132 277.478 596.799 275.315 596.799 272.646C596.799 269.977 567.132 267.813 530.535 267.813C493.938 267.813 464.27 269.977 464.27 272.646C464.27 275.315 493.938 277.478 530.535 277.478Z" fill="#E59F39"/>
<path d="M530.535 275.996C560.672 275.996 585.102 274.496 585.102 272.646C585.102 270.795 560.672 269.295 530.535 269.295C500.398 269.295 475.967 270.795 475.967 272.646C475.967 274.496 500.398 275.996 530.535 275.996Z" fill="#F7CC7F"/>
<path d="M604.355 255.129V271.642C604.355 274.31 574.688 276.475 538.09 276.475C501.492 276.475 471.826 274.31 471.826 271.642V255.129H604.355Z" fill="#E59F39"/>
<path d="M556.4 276.286V255.127H604.355V271.64C604.355 273.846 584.092 275.706 556.4 276.286Z" fill="#EAB054"/>
<path d="M554.167 276.331C549.019 276.424 543.635 276.475 538.09 276.475C529.828 276.475 521.918 276.365 514.624 276.163V255.129H554.167V276.331Z" fill="#EAB054"/>
<path d="M511.968 276.085C488.359 275.346 471.824 273.635 471.824 271.642V255.129H511.968V276.085Z" fill="#EAB054"/>
<path d="M538.09 259.786C574.687 259.786 604.355 257.623 604.355 254.954C604.355 252.285 574.687 250.121 538.09 250.121C501.493 250.121 471.826 252.285 471.826 254.954C471.826 257.623 501.493 259.786 538.09 259.786Z" fill="#E59F39"/>
<path d="M538.09 258.304C568.227 258.304 592.658 256.804 592.658 254.954C592.658 253.103 568.227 251.603 538.09 251.603C507.953 251.603 483.523 253.103 483.523 254.954C483.523 256.804 507.953 258.304 538.09 258.304Z" fill="#F7CC7F"/>
<path d="M635.186 235.063L631.205 249.013C630.562 251.269 604.977 245.889 574.059 237.001C543.143 228.113 518.601 219.078 519.245 216.823L523.226 202.873L635.186 235.063Z" fill="#E59F39"/>
<path d="M589.573 241.29L594.673 223.415L635.184 235.063L631.203 249.013C630.671 250.877 613.104 247.527 589.571 241.292L589.573 241.29Z" fill="#EAB054"/>
<path d="M587.678 240.786C583.307 239.614 578.745 238.348 574.061 237.001C567.082 234.993 560.427 232.979 554.313 231.037L559.383 213.269L592.789 222.873L587.676 240.786H587.678Z" fill="#EAB054"/>
<path d="M552.089 230.328C532.322 223.968 518.766 218.506 519.247 216.825L523.228 202.875L557.142 212.625L552.091 230.328H552.089Z" fill="#EAB054"/>
<path d="M523.268 202.727C522.625 204.982 547.167 214.017 578.083 222.905C608.999 231.793 634.585 237.173 635.229 234.917C635.872 232.662 611.33 223.627 580.414 214.739C549.498 205.851 523.912 200.471 523.268 202.727Z" fill="#E59F39"/>
<path d="M533.151 205.567C532.704 207.13 552.982 214.332 578.441 221.651C603.901 228.97 624.901 233.638 625.348 232.073C625.795 230.51 605.517 223.307 580.058 215.988C554.598 208.669 533.598 204.002 533.151 205.565V205.567Z" fill="#F7CC7F"/>
<path d="M598.981 139.057L603.22 152.929C603.905 155.172 579.534 164.662 548.789 174.126C518.042 183.59 492.561 189.446 491.876 187.203L487.637 173.332L598.981 139.057Z" fill="#E59F39"/>
<path d="M564.122 169.236L558.691 151.459L598.979 139.057L603.218 152.929C603.783 154.782 587.238 161.587 564.122 169.234V169.236Z" fill="#EAB054"/>
<path d="M562.259 169.85C557.959 171.261 553.446 172.694 548.787 174.128C541.846 176.265 535.172 178.218 528.993 179.935L523.593 162.264L556.815 152.037L562.257 169.85H562.259Z" fill="#EAB054"/>
<path d="M526.741 180.556C506.717 186.041 492.386 188.879 491.874 187.205L487.635 173.334L521.361 162.953L526.741 180.558V180.556Z" fill="#EAB054"/>
<path d="M487.591 173.186C488.276 175.428 513.757 169.573 544.502 160.108C575.249 150.644 599.618 141.154 598.933 138.911C598.247 136.669 572.766 142.524 542.021 151.989C511.274 161.453 486.905 170.943 487.591 173.186Z" fill="#E59F39"/>
<path d="M497.418 170.162C497.893 171.716 518.804 166.659 544.122 158.865C569.441 151.072 589.582 143.492 589.107 141.938C588.632 140.383 567.721 145.441 542.403 153.234C517.084 161.027 496.944 168.607 497.418 170.162Z" fill="#F7CC7F"/>
<path d="M235.658 311.653C235.658 311.653 237.295 320.376 237.297 320.396C237.388 321.533 237.354 324.407 237.599 325.398C238.518 329.127 254.15 320.061 250.049 319.332C249.678 319.267 246.988 316.535 246.371 315.376C245.3 313.364 244.314 309.614 244.314 309.614L235.658 311.651V311.653Z" fill="#F7A491"/>
<path d="M249.275 318.788C249.275 318.788 245.238 319.792 243.186 319.997C241.133 320.203 238.495 317.001 237.023 317.606C235.402 318.273 234.518 328.433 234.518 328.433C234.518 328.433 260.303 329.612 266.396 327.922C268.81 327.253 257.296 321.874 249.273 318.788H249.275Z" fill="#F47458"/>
<path d="M271.612 311.255C271.612 311.255 273.249 319.978 273.251 319.997C273.342 321.135 273.308 324.008 273.553 325C274.473 328.729 289.818 320.26 285.716 319.531C285.345 319.466 282.944 316.137 282.328 314.98C281.256 312.968 280.271 309.218 280.271 309.218L271.614 311.255H271.612Z" fill="#F7A491"/>
<path d="M284.832 318.788C284.832 318.788 280.796 319.792 278.743 319.997C276.69 320.203 274.053 317.001 272.58 317.606C270.96 318.273 270.076 328.433 270.076 328.433C270.076 328.433 295.861 329.612 301.954 327.922C304.367 327.253 292.854 321.874 284.83 318.788H284.832Z" fill="#F47458"/>
<path d="M182.21 223.924L229.119 213.002C229.119 213.002 250.154 207.42 255.233 213.972C260.311 220.525 281.874 310.965 281.874 310.965C281.874 310.965 270.751 311.935 270.025 311.45L243.989 265.064C241.512 260.653 239.884 255.811 239.187 250.796L237.341 237.514L218.238 243.096C218.238 243.096 196.235 247.95 187.289 242.368C178.343 236.785 182.21 223.922 182.21 223.922V223.924Z" fill="#0E2E35"/>
<path d="M200.224 142.749C200.965 142.778 202.995 143.458 205.965 149.073C209.757 156.241 215.297 177.894 215.297 177.894L198.756 184.056L196.631 179.537L193.131 144.744C193.131 144.744 200.018 142.742 200.224 142.751V142.749Z" fill="#EAB054"/>
<path d="M178.358 139.627C183.088 139.634 194.792 141.014 200.222 142.751C200.222 142.751 204.212 177.059 196.629 203.129C194.933 208.966 198.032 227.321 198.032 227.321L149.02 226.673C149.02 226.673 154.826 182.296 152.638 175.128C150.451 167.959 150.4 142.98 150.4 142.98C150.4 142.98 150.735 142.927 161.411 141.082C166.391 140.22 173.307 139.621 178.356 139.627H178.358Z" fill="#F7CC7F"/>
<path d="M149.868 146.794C154.451 145.074 156.694 186.38 157.31 203.379C165.424 204.16 179.569 203.385 183.092 203.121C184.749 202.996 188.567 201.596 190.215 201.382C191.903 201.162 193.433 201.045 194.264 201.189C194.568 201.242 203.028 204.703 203.752 205.461C204.649 206.401 207.075 208.775 206.666 209.802C206.257 210.829 202.001 206.941 202.001 206.941L199.921 205.774C202.509 208.305 207.449 211.638 206.738 212.852C206.043 214.036 201.587 210.654 198.412 208.347C201.136 210.808 204.52 215.213 203.739 215.899C203.039 216.516 199.191 211.418 195.076 209.951C193.553 209.406 192.032 210.912 190.833 211.094C189.951 211.228 188.591 211.513 187.728 211.268L183.597 210.868C182.08 211.005 181.719 211.039 180.187 211.365C178.408 211.744 175.49 212.142 173.224 212.697C160.181 215.885 155.831 217.365 151.837 217.363C139.741 217.356 139.038 150.858 149.868 146.794Z" fill="#F7A491"/>
<path d="M141.171 185.573C140.313 168.158 140.439 146.694 150.197 143.033C154.048 141.588 160.835 150.275 159.616 185.926C154.406 186.356 146.758 186.704 141.173 185.573H141.171Z" fill="#EAB054"/>
<path d="M249.865 174.931L203.689 177.959C202.467 178.04 201.414 178.853 201.026 180.018L189.074 215.758L163.616 217.426C162.905 217.473 162.365 218.089 162.411 218.803C162.458 219.517 163.072 220.059 163.785 220.012L236.24 215.262C238.232 215.131 239.962 213.839 240.658 211.962L252.891 179.012C253.655 176.953 252.051 174.789 249.867 174.933L249.865 174.931Z" fill="#F47458"/>
<path d="M226.855 197.015C226.762 198.61 225.56 199.838 224.169 199.758C222.777 199.677 221.724 198.32 221.815 196.723C221.907 195.128 223.11 193.9 224.501 193.98C225.893 194.061 226.946 195.418 226.855 197.015Z" fill="white"/>
<path d="M149.052 225.554L200.17 216.696C200.17 216.696 222.27 213.316 227.349 219.868C232.427 226.421 247.175 311.367 247.175 311.367C247.175 311.367 236.052 312.337 235.326 311.852C234.765 311.475 221.298 283.156 215.251 270.397C213.331 266.347 211.981 262.05 211.238 257.628L209.295 246.067L202.862 248.291C191.557 252.196 179.514 253.552 167.65 252.073C162.684 251.455 158.048 250.39 155.172 248.596C146.227 243.014 149.054 225.554 149.054 225.554H149.052Z" fill="#184655"/>
<path d="M180.286 133.367L181.282 140.777C181.282 140.777 183.51 151.451 180.643 153.509C177.775 155.568 168.448 140.472 168.448 140.472L169.433 121.698L180.286 133.367Z" fill="#F7A491"/>
<path d="M169.116 127.782C171.486 134.187 177.126 138.121 181.13 139.648L180.286 133.367L169.433 121.698L169.114 127.782H169.116Z" fill="#F47458"/>
<path d="M179.697 101.268C185.774 100.287 191.224 105.175 191.072 111.259C191.006 113.905 190.789 117.206 190.241 120.762C188.92 129.316 183.086 136.847 179.229 136.173C175.372 135.5 165.667 128.123 167.376 115.95C168.431 108.436 173.324 102.295 179.7 101.266L179.697 101.268Z" fill="#F7A491"/>
<path d="M170.051 117.405C169.726 119.286 168.22 120.595 166.688 120.328C165.156 120.061 164.177 118.32 164.502 116.439C164.827 114.559 166.334 113.25 167.865 113.517C169.397 113.784 170.376 115.525 170.051 117.405Z" fill="#F7A491"/>
<path d="M167.865 113.517C167.865 113.517 172.528 114.675 174.26 111.677C175.99 108.676 182.179 102.202 190.046 104.885C197.914 107.57 183.124 98.3578 182.495 98.3578C181.866 98.3578 174.313 98.3048 174.313 98.3048C174.313 98.3048 168.492 103.095 168.281 103.623C168.072 104.15 166.393 109.887 166.393 109.887L167.865 113.519V113.517Z" fill="#0E2E35"/>
<path d="M396.387 328.822H512.474V286.413H396.387V328.822Z" fill="#50BFA5"/>
<path d="M396.387 298.051H512.474V292.595H396.387V298.051Z" fill="#96D9C9"/>
<path d="M396.387 308.707H512.474V303.252H396.387V308.707Z" fill="#96D9C9"/>
<path d="M396.387 319.362H512.474V313.907H396.387V319.362Z" fill="#96D9C9"/>
<path d="M396.387 328.824H512.474V323.369H396.387V328.824Z" fill="#96D9C9"/>
<path d="M439.599 328.822H463.743V286.413H439.599V328.822Z" fill="#F7CC7F"/>
<path d="M511.065 328.822H528.596V286.413H511.065V328.822Z" fill="#3C8F7C"/>
<path d="M641.482 328.221H0V331.895H641.482V328.221Z" fill="#0E2E35"/>
<path opacity="0.8" d="M429.442 54.8002C428.267 49.6625 423.686 45.8314 418.211 45.8314C417.207 45.8314 416.232 45.9606 415.302 46.2041C412.599 40.4035 406.735 36.3861 399.935 36.3861C398.178 36.3861 396.481 36.655 394.886 37.1527C391.226 31.0683 384.576 27 376.978 27C367.939 27 360.24 32.7583 357.322 40.8207C355.257 39.6644 352.881 39.0036 350.347 39.0036C342.425 39.0036 336 45.4502 336 53.4046C336 53.8769 336.023 54.3428 336.068 54.8024H429.436L429.442 54.8002Z" fill="white"/>
<path opacity="0.8" d="M667.71 87.0381C666.82 83.1499 663.355 80.2506 659.212 80.2506C658.452 80.2506 657.714 80.348 657.011 80.5323C654.967 76.1421 650.529 73.1031 645.384 73.1031C644.052 73.1031 642.769 73.3064 641.563 73.6833C638.792 69.0793 633.76 66 628.011 66C621.171 66 615.343 70.3584 613.136 76.4577C611.573 75.583 609.775 75.0832 607.857 75.0832C601.861 75.0832 597 79.9626 597 85.9814C597 86.3393 597.019 86.6908 597.053 87.0381H667.71Z" fill="white"/>
<path opacity="0.8" d="M562 50.3464C562.776 46.9558 565.798 44.4272 569.41 44.4272C570.072 44.4272 570.716 44.5119 571.33 44.6729C573.113 40.846 576.982 38.1945 581.47 38.1945C582.63 38.1945 583.749 38.3724 584.801 38.7007C587.217 34.6854 591.606 32 596.619 32C602.583 32 607.664 35.7993 609.59 41.1192C610.953 40.3568 612.521 39.9205 614.192 39.9205C619.42 39.9205 623.659 44.1752 623.659 49.4231C623.659 49.7344 623.642 50.0415 623.614 50.3443H562V50.3464Z" fill="white"/>
<path d="M248.234 107.297L249.057 117.346L254.872 110.772L273.679 95.3124L257.642 100.385C257.642 100.385 249.747 104.235 249.384 104.743C249.021 105.251 248.237 107.299 248.237 107.299L248.234 107.297Z" fill="#50BFA5"/>
<path d="M239.713 102.981L273.679 95.3124L248.234 107.297L239.713 102.981Z" fill="#96D9C9"/>
<path d="M261.299 114.739L250.827 109.495L273.679 95.3124L261.299 114.739Z" fill="#96D9C9"/>
<path d="M244.27 112.877C245.838 112.284 246.994 112.157 247.007 112.155L246.931 111.425C246.88 111.431 245.669 111.564 244.015 112.189L244.272 112.877H244.27Z" fill="#3C8F7C"/>
<path d="M227.507 172.269C228.883 171.007 230.123 169.647 231.191 168.226L231.775 168.668C230.68 170.125 229.412 171.519 228.003 172.811L227.509 172.269H227.507ZM234.018 163.552C234.377 162.796 234.708 162.008 234.999 161.21C235.33 160.305 235.624 159.361 235.871 158.404L236.58 158.588C236.326 159.57 236.027 160.538 235.687 161.464C235.387 162.283 235.048 163.092 234.679 163.867L234.018 163.552ZM236.974 147.486L237.706 147.469C237.75 149.464 237.694 151.292 237.527 153.06L236.799 152.99C236.964 151.252 237.02 149.45 236.976 147.484L236.974 147.486ZM235.932 136.476L236.655 136.372C236.961 138.522 237.181 140.277 237.343 141.9L236.615 141.974C236.453 140.362 236.236 138.617 235.93 136.476H235.932ZM235.113 130.944C234.822 128.964 234.729 127.088 234.837 125.368L235.567 125.415C235.463 127.084 235.554 128.909 235.837 130.836L235.843 130.879L235.117 130.978L235.113 130.944ZM236.033 119.849C236.769 118.041 237.839 116.465 239.211 115.165L239.713 115.698C238.417 116.927 237.409 118.418 236.71 120.127L236.033 119.849Z" fill="#3C8F7C"/>
</svg>
