<svg width="" height="" viewBox="0 0 547 626" fill="none" xmlns="http://www.w3.org/2000/svg">
<g clip-path="url(#clip0_493_45)">
<path d="M372.196 601.922H358.845V602.306H372.196V601.922Z" fill="#EBEBEB"/>
<path d="M502.108 583.488H472.626V583.872H502.108V583.488Z" fill="#EBEBEB"/>
<path d="M10.2794 586.069H-56.0752V586.453H10.2794V586.069Z" fill="#EBEBEB"/>
<path d="M33.6928 586.069H23.9678V586.453H33.6928V586.069Z" fill="#EBEBEB"/>
<path d="M209.235 592.551H65.3105V592.935H209.235V592.551Z" fill="#EBEBEB"/>
<path d="M472.835 90.7302C492.283 86.1405 504.328 66.6558 499.738 47.2099C495.148 27.764 475.661 15.7207 456.213 20.3103C436.766 24.9 424.721 44.3846 429.311 63.8305C433.901 83.2764 453.388 95.3198 472.835 90.7302Z" fill="#E0E0E0"/>
<path d="M469.46 85.8511C486.236 83.1282 497.628 67.3227 494.905 50.5485C492.182 33.7743 476.375 22.3834 459.599 25.1063C442.823 27.8291 431.431 43.6346 434.154 60.4088C436.877 77.183 452.684 88.5739 469.46 85.8511Z" fill="#F0F0F0"/>
<path d="M465.97 34.4067V55.9134L480.227 47.8484" fill="#F0F0F0"/>
<path d="M465.97 34.4067V55.9134L480.227 47.8484" stroke="#E0E0E0" stroke-width="2" stroke-linecap="round" stroke-linejoin="round"/>
<path d="M493.92 576.575C494.15 575.008 499.527 537.909 488.757 525.097C486.376 522.255 483.365 520.78 479.816 520.688C458.077 520.181 455.096 537.648 455.065 537.817L457.631 538.216C457.723 537.586 460.304 522.808 479.754 523.284C482.566 523.346 484.87 524.498 486.775 526.772C496.808 538.692 491.415 575.822 491.354 576.191L493.92 576.575Z" fill="#FE5C36"/>
<path d="M495.225 574.885L497.822 574.808C497.822 574.47 496.961 540.628 513.631 533.638C529.977 526.787 537.321 540.874 537.628 541.473L539.948 540.305C539.856 540.136 531.237 523.438 512.632 531.242C494.319 538.923 495.179 573.426 495.225 574.885Z" fill="#FE5C36"/>
<path d="M495.148 577.543C495.148 577.005 495.302 523.484 505.734 507.83C515.751 492.806 531.913 499.873 532.604 500.18L533.68 497.814C533.495 497.722 514.844 489.504 503.583 506.386C492.721 522.685 492.552 575.3 492.552 577.543H495.148Z" fill="#FE5C36"/>
<path d="M476.697 521.994C476.697 521.994 486.191 525.497 483.365 533.761C480.538 542.026 450.518 555.621 450.518 555.621C450.518 555.621 437.95 544.1 449.488 525.358C461.042 506.617 476.436 516.095 476.682 521.994H476.697Z" fill="#FE5C36"/>
<path d="M506.211 505.019C506.211 505.019 499.466 504.297 500.02 500.195C500.573 496.094 526.214 485.525 541.362 502.607C541.362 502.607 531.668 519.26 517.657 519.475C503.645 519.69 506.226 505.019 506.226 505.019H506.211Z" fill="#FE5C36"/>
<path d="M513.139 532.44C513.139 532.44 508.484 528.692 513.508 526.848C518.531 525.02 543.159 525.543 543.42 549.937C543.42 549.937 514.737 554.7 511.188 545.406C507.639 536.112 513.154 532.44 513.154 532.44H513.139Z" fill="#FE5C36"/>
<path d="M471.596 626.286H516.119L520.913 577.543H466.803L471.596 626.286Z" fill="#42A0DD"/>
<path d="M464.422 582.935H523.295V572.181H464.422V582.935Z" fill="#085D94"/>
<path d="M421.206 591.353L376.944 587.006V524.805H359.399V586.99L314.953 591.353C310.543 591.783 307.179 595.501 307.179 599.925V606.577H428.98V599.925C428.98 595.485 425.615 591.783 421.206 591.353Z" fill="#263238"/>
<path opacity="0.2" d="M421.206 591.353L376.944 587.006V524.805H359.399V586.99L314.953 591.353C310.543 591.783 307.179 595.501 307.179 599.925V606.577H428.98V599.925C428.98 595.485 425.615 591.783 421.206 591.353Z" fill="white"/>
<path d="M311.864 626.286C318.202 626.286 323.341 621.148 323.341 614.811C323.341 608.473 318.202 603.335 311.864 603.335C305.526 603.335 300.388 608.473 300.388 614.811C300.388 621.148 305.526 626.286 311.864 626.286Z" fill="#263238"/>
<path d="M424.309 626.286C430.648 626.286 435.786 621.148 435.786 614.811C435.786 608.473 430.648 603.335 424.309 603.335C417.971 603.335 412.833 608.473 412.833 614.811C412.833 621.148 417.971 626.286 424.309 626.286Z" fill="#263238"/>
<path d="M356.388 482.76H379.971V531.81C379.971 535.313 377.128 538.155 373.625 538.155H362.733C359.23 538.155 356.388 535.313 356.388 531.81V482.76Z" fill="#263238"/>
<path opacity="0.3" d="M356.388 482.76H379.971V531.81C379.971 535.313 377.128 538.155 373.625 538.155H362.733C359.23 538.155 356.388 535.313 356.388 531.81V482.76Z" fill="white"/>
<path d="M410.113 385.534C410.113 385.534 413.462 468.488 390.355 482.76H416.719C416.719 482.76 437.152 454.494 431.376 385.534H410.097H410.113Z" fill="#263238"/>
<path opacity="0.3" d="M410.113 385.534C410.113 385.534 413.462 468.488 390.355 482.76H416.719C416.719 482.76 437.152 454.494 431.376 385.534H410.097H410.113Z" fill="white"/>
<path d="M425.707 489.12H307.532V478.842C307.532 474.603 310.973 471.161 315.213 471.161H418.025C422.266 471.161 425.707 474.603 425.707 478.842V489.12Z" fill="#263238"/>
<path d="M305.689 489.12H427.536C429.241 489.12 430.624 487.737 430.624 486.032V483.236C430.624 481.531 429.241 480.148 427.536 480.148H305.689C303.983 480.148 302.601 481.531 302.601 483.236V486.032C302.601 487.737 303.983 489.12 305.689 489.12Z" fill="#263238"/>
<path opacity="0.6" d="M305.689 489.12H427.536C429.241 489.12 430.624 487.737 430.624 486.032V483.236C430.624 481.531 429.241 480.148 427.536 480.148H305.689C303.983 480.148 302.601 481.531 302.601 483.236V486.032C302.601 487.737 303.983 489.12 305.689 489.12Z" fill="white"/>
<path d="M437.86 341.061H395.611C383.24 341.061 373.211 351.089 373.211 363.459V379.988C373.211 392.358 383.24 402.386 395.611 402.386H437.86C450.231 402.386 460.26 392.358 460.26 379.988V363.459C460.26 351.089 450.231 341.061 437.86 341.061Z" fill="#263238"/>
<path d="M267.463 273.284L259.029 251.056C259.029 251.056 262.639 247.707 260.166 244.312C257.692 240.917 242.129 231.362 239.287 233.052C236.444 234.726 230.161 241.055 233.556 244.573C236.967 248.091 252.038 253.944 252.038 253.944L259.49 283.116L267.448 273.284H267.463Z" fill="#E4897B"/>
<path d="M326.352 315.545C326.352 315.545 287.99 307.664 283.826 305.775C279.663 303.885 264.222 258.675 264.222 258.675L252.393 264.205C252.393 264.205 261.918 309.585 271.658 320.384C281.399 331.168 322.957 340.308 322.957 340.308L326.352 315.56V315.545Z" fill="#085D94"/>
<path d="M264.421 257.784L266.864 262.5L251.654 267.739L252.238 261.978L264.421 257.784Z" fill="#42A0DD"/>
<path opacity="0.2" d="M323.247 339.663C321.112 339.356 314.459 338.327 306.517 336.652C311.049 328.833 324.323 324.808 324.323 324.808L323.247 339.663Z" fill="black"/>
<path d="M380.431 284.237C380.431 284.237 382.69 305.483 374.808 310.706C366.942 315.929 328.211 309.815 323.817 301.258C319.423 292.717 335.954 269.505 335.954 269.505L380.416 284.237H380.431Z" fill="#263238"/>
<path d="M223.738 563.794L233.847 566.236L238.963 552.288L243.603 539.599L232.096 534.698L227.671 550.091L223.738 563.794Z" fill="#E4897B"/>
<path opacity="0.2" d="M227.672 550.091L238.964 552.288L243.604 539.599L232.097 534.698L227.672 550.091Z" fill="black"/>
<path d="M228.687 542.733L242.698 547.94C242.698 547.94 280.077 454.494 287.759 454.171C295.441 453.849 373.656 489.795 393.259 469.856C412.863 449.931 384.518 401.895 384.518 401.895C384.518 401.895 337.367 395.166 333.818 405.812C333.127 407.87 332.374 411.911 331.821 415.367C331.283 418.624 330.915 421.358 330.915 421.358C330.915 421.358 330.899 421.358 330.884 421.358C329.424 420.989 282.09 408.777 263.439 421.358C244.495 434.17 228.687 542.733 228.687 542.733Z" fill="#085D94"/>
<path opacity="0.6" d="M228.687 542.733L242.698 547.94C242.698 547.94 280.077 454.494 287.759 454.171C295.441 453.849 373.656 489.795 393.259 469.856C412.863 449.931 384.518 401.895 384.518 401.895C384.518 401.895 337.367 395.166 333.818 405.812C333.127 407.87 332.374 411.911 331.821 415.367C331.283 418.624 330.915 421.358 330.915 421.358C330.915 421.358 330.899 421.358 330.884 421.358C329.424 420.989 282.09 408.777 263.439 421.358C244.495 434.17 228.687 542.733 228.687 542.733Z" fill="white"/>
<path d="M309.283 603.658L319.346 601.077L317.41 586.637L315.612 573.395L303.168 574.517L306.394 589.94L309.283 603.658Z" fill="#E4897B"/>
<path opacity="0.2" d="M306.47 590.263L317.471 586.914L315.642 573.533L303.183 574.578L306.47 590.263Z" fill="black"/>
<path d="M248.49 542.748L228.072 535.82L227.212 544.177L242.683 549.646L248.49 542.748Z" fill="#42A0DD"/>
<path d="M359.398 474.649C359.398 474.649 356.202 474.725 306.747 472.421C306.747 472.421 314.137 534.253 318.178 580.523L303.383 583.042C303.383 583.042 268.047 483.942 268.431 468.197C268.815 452.451 286.867 447.842 286.867 447.842C286.867 447.842 322.095 468.197 359.398 474.649Z" fill="#085D94"/>
<path opacity="0.6" d="M359.398 474.649C359.398 474.649 356.202 474.725 306.747 472.421C306.747 472.421 314.137 534.253 318.178 580.523L303.383 583.042C303.383 583.042 268.047 483.942 268.431 468.197C268.815 452.451 286.867 447.842 286.867 447.842C286.867 447.842 322.095 468.197 359.398 474.649Z" fill="white"/>
<path opacity="0.1" d="M359.398 474.649C359.398 474.649 356.202 474.725 306.747 472.421C306.747 472.421 314.137 534.253 318.178 580.523L303.383 583.042C303.383 583.042 268.047 483.942 268.431 468.197C268.815 452.451 286.867 447.842 286.867 447.842C286.867 447.842 322.095 468.197 359.398 474.649Z" fill="black"/>
<path d="M320.33 576.037L300.004 578.342L303.937 586.314L320.391 584.21L320.33 576.037Z" fill="#42A0DD"/>
<path opacity="0.1" d="M330.915 421.358L358.492 427.104C358.492 427.104 343.252 418.685 331.821 415.367C331.284 418.624 330.915 421.358 330.915 421.358Z" fill="black"/>
<path d="M383.38 394.551L384.517 401.894L333.818 405.796L332.466 397.132L383.38 394.551Z" fill="#263238"/>
<path opacity="0.2" d="M383.38 394.551L384.517 401.894L333.818 405.796L332.466 397.132L383.38 394.551Z" fill="black"/>
<path d="M367.391 406.847L369.897 406.589L368.585 393.829L366.079 394.087L367.391 406.847Z" fill="#085D94"/>
<path d="M344.877 405.564L355.978 404.85L355.436 396.434L344.336 397.148L344.877 405.564Z" fill="white"/>
<path d="M336.284 408.172L338.79 407.914L337.478 395.154L334.972 395.412L336.284 408.172Z" fill="#085D94"/>
<path opacity="0.6" d="M367.391 406.847L369.897 406.589L368.585 393.829L366.079 394.087L367.391 406.847Z" fill="white"/>
<path opacity="0.6" d="M336.284 408.172L338.79 407.914L337.478 395.154L334.972 395.412L336.284 408.172Z" fill="white"/>
<path d="M325.43 314.838C325.43 314.838 338.366 318.894 354.635 318.064C370.905 317.235 390.355 325.131 390.355 325.131L383.365 394.551L332.466 397.117C332.466 397.117 315.366 339.141 325.43 314.838Z" fill="#42A0DD"/>
<path d="M333.618 275.635C333.618 275.635 336.476 241.915 364.668 254.174C400.05 269.551 371.919 310.614 354.635 302.18C337.352 293.747 333.618 275.635 333.618 275.635Z" fill="#263238"/>
<path opacity="0.2" d="M341.515 319.954L342.33 339.003L348.644 330.047C348.644 330.047 346.386 351.123 347.707 362.583C347.707 362.583 348.921 342.014 351.778 330.047L358.492 339.003L368.125 320.077C368.125 320.077 352.531 314.47 341.5 319.954H341.515Z" fill="black"/>
<path d="M350.241 323.487L364.821 319.37C355.834 313.195 360.366 299.369 360.366 299.369L345.924 304.438C346.692 306.835 347.184 308.863 347.476 310.614C348.981 319.616 344.91 320.338 344.91 320.338L350.241 323.487Z" fill="#E4897B"/>
<path opacity="0.2" d="M345.925 304.454C346.693 306.85 347.185 308.878 347.477 310.629C354.39 307.864 360.366 299.384 360.366 299.384L345.925 304.454Z" fill="black"/>
<path d="M355.356 261.256C342.574 258.429 336.936 264.359 333.079 277.325C328.271 293.531 329.331 306.036 346.092 306.051C368.861 306.082 376.589 265.941 355.356 261.241V261.256Z" fill="#E4897B"/>
<path d="M341.5 278.446C341.5 278.446 338.995 281.396 336.599 282.932C336.599 282.932 337.305 284.913 339.656 285.128L341.5 278.461V278.446Z" fill="#DE5753"/>
<path d="M349.564 279.122C349.303 280.167 349.657 281.15 350.363 281.319C351.055 281.488 351.838 280.781 352.084 279.736C352.345 278.692 351.992 277.709 351.285 277.54C350.594 277.371 349.81 278.077 349.564 279.122Z" fill="#263238"/>
<path d="M351.561 277.663L349.502 276.219C349.502 276.219 350.163 278.415 351.561 277.663Z" fill="#263238"/>
<path d="M336.629 275.712C336.368 276.756 336.721 277.739 337.428 277.908C338.119 278.077 338.903 277.371 339.148 276.326C339.41 275.281 339.056 274.298 338.35 274.129C337.658 273.96 336.875 274.667 336.629 275.712Z" fill="#263238"/>
<path d="M338.625 274.252L336.566 272.808C336.566 272.808 337.227 275.005 338.625 274.252Z" fill="#263238"/>
<path d="M351.64 270.32C351.64 270.32 355.342 270.642 356.756 273.484" stroke="#263238" stroke-width="0.72" stroke-linecap="round" stroke-linejoin="round"/>
<path d="M342.467 267.723C342.467 267.723 340.393 266.387 337.136 267.647" stroke="#263238" stroke-width="0.72" stroke-linecap="round" stroke-linejoin="round"/>
<path d="M364.559 285.897C364.559 285.897 360.903 274.068 363.607 266.156C363.607 266.156 340.561 250.195 333.617 275.635C333.617 275.635 336.198 252.254 358.291 256.601C380.353 260.949 373.178 293.086 359.704 300.152C359.704 300.152 366.802 293.27 364.559 285.881V285.897Z" fill="#263238"/>
<path d="M361.871 288.124C362.409 286.081 365.313 283.07 369.046 284.33C372.918 285.635 372.994 294.192 362.716 293.962C361.241 293.931 360.75 292.364 361.871 288.109V288.124Z" fill="#E4897B"/>
<path d="M337.366 289.967C337.812 291.657 338.027 294.714 338.027 294.714C338.303 294.745 338.595 294.776 338.872 294.791C342.682 295.114 344.572 294.008 345.493 292.671C346 291.949 346.2 291.135 346.292 290.474C346.4 289.706 346.292 289.138 346.292 289.138C344.172 290.183 340.577 290.152 338.672 290.044C337.873 290.014 337.366 289.952 337.366 289.952V289.967Z" fill="#263238"/>
<path d="M338.672 290.06L338.902 291.458C342.497 291.749 345.078 291.488 346.292 290.49C346.4 289.722 346.292 289.153 346.292 289.153C344.172 290.198 340.577 290.167 338.672 290.06Z" fill="white"/>
<path d="M338.872 294.791C342.682 295.114 344.572 294.008 345.494 292.671C344.188 292.61 342.605 292.671 341.177 293.147C340.086 293.501 339.364 294.131 338.872 294.776V294.791Z" fill="#DE5753"/>
<path d="M355.403 262.27C355.403 262.27 355.895 284.453 369.2 287.11C382.504 289.768 367.955 258.614 367.955 258.614C367.955 258.614 348.136 245.679 334.939 254.789C321.727 263.914 333.603 275.635 333.603 275.635C333.603 275.635 336.399 259.167 355.388 262.27H355.403Z" fill="#263238"/>
<path d="M355.864 260.81C355.864 260.81 351.117 274.836 360.489 282.194" stroke="#263238" stroke-width="0.5" stroke-linecap="round" stroke-linejoin="round"/>
<path d="M373.087 291.673C371.397 296.189 367.049 298.724 363.377 297.341C359.706 295.959 358.108 291.196 359.798 286.68C361.488 282.164 365.836 279.629 369.507 281.011C373.179 282.394 374.777 287.156 373.087 291.673Z" fill="#085D94"/>
<path d="M368.846 284.284C368.846 284.284 374.362 259.597 361.994 253.13C361.994 253.13 364.575 253.483 366.173 253.944C367.771 254.405 377.649 264.421 372.656 286.603L368.846 284.284Z" fill="#42A0DD"/>
<path d="M345.663 298.416C345.356 298.37 345.048 298.324 344.741 298.278L344.987 296.757C356.126 298.57 364.406 292.686 364.483 292.625L365.39 293.869C365.036 294.115 356.986 299.907 345.663 298.416Z" fill="#085D94"/>
<path d="M372.564 291.058C371.443 294.038 368.57 295.713 366.142 294.806C363.715 293.9 362.655 290.736 363.776 287.755C364.898 284.775 367.771 283.101 370.198 284.007C372.626 284.913 373.686 288.078 372.564 291.058Z" fill="#42A0DD"/>
<path d="M344.296 298.908L343.067 298.739C342.145 298.616 341.5 297.787 341.622 296.865C341.745 295.943 342.575 295.298 343.497 295.421L344.726 295.59C345.648 295.713 346.293 296.542 346.17 297.464C346.047 298.386 345.217 299.031 344.296 298.908Z" fill="#085D94"/>
<path d="M360.903 314.101L351.777 323.057L355.434 334.041L368.124 320.062L360.903 314.101Z" fill="#085D94"/>
<path d="M347.706 315.975L349.181 322.873L344.464 332.628L341.515 319.954L347.706 315.975Z" fill="#085D94"/>
<path d="M358.953 321.874L364.253 302.472C364.253 302.472 361.688 297.633 362.241 296.635C362.794 295.621 365.559 282.594 367.526 281.18C369.492 279.767 377.574 282.179 378.403 283.5C379.233 284.821 370.66 302.472 370.66 302.472L367.541 323.487L358.968 321.874H358.953Z" fill="#E4897B"/>
<path d="M390.356 325.131C404.936 340.063 375.699 373.89 358.953 372.446C342.207 371.002 359.368 309.677 359.368 309.677L370.091 311.443C370.091 311.443 366.327 337.989 367.51 340.063C368.693 342.152 385.439 320.108 390.34 325.131H390.356Z" fill="#085D94"/>
<path d="M358.492 307.711L356.909 312.78L371.858 314.101V309.677L358.492 307.711Z" fill="#42A0DD"/>
<path opacity="0.6" d="M335.83 347.821H329.777C329.107 347.821 328.563 348.364 328.563 349.034V360.463C328.563 361.134 329.107 361.677 329.777 361.677H335.83C336.501 361.677 337.044 361.134 337.044 360.463V349.034C337.044 348.364 336.501 347.821 335.83 347.821Z" fill="white"/>
<path opacity="0.2" d="M335.953 348.727H329.07V358.144H335.953V348.727Z" fill="black"/>
<path d="M333.433 344.472H331.912V350.017H333.433V344.472Z" fill="#263238"/>
<path d="M207.024 583.426C208.56 582.72 210.219 582.305 211.894 582.182C211.894 582.182 217.732 578.741 223.509 565.407L230.008 565.376C232.266 565.407 234.248 566.836 235.001 568.955C235.108 569.247 235.17 569.555 235.185 569.862C235.124 571.429 234.955 572.996 234.678 574.547C234.094 579.417 230.883 589.848 230.883 589.848L229.777 589.571L231.774 579.862C232.435 576.56 228.978 579.755 227.365 583.073C225.752 586.391 223.294 589.74 216.104 588.096C207.731 586.146 204.366 584.932 206.978 583.426H207.024Z" fill="#085D94"/>
<path d="M224.691 561.904C224.691 561.904 216.564 578.895 211.894 582.182C211.894 582.182 218.162 585.915 224.691 577.604C233.126 566.851 235.2 569.846 235.2 569.846C235.2 569.846 234.846 566.16 234.186 564.362C232.911 560.89 224.691 561.904 224.691 561.904Z" fill="#E4897B"/>
<path d="M296.469 623.905C297.791 622.86 299.296 622.062 300.909 621.539C300.909 621.539 305.764 616.823 308.222 602.491L314.537 600.908C316.734 600.401 319.007 601.308 320.236 603.197C320.405 603.458 320.544 603.735 320.636 604.027C320.943 605.563 321.158 607.13 321.266 608.697C321.85 613.566 321.204 624.458 321.204 624.458H320.068L319.714 614.55C319.576 611.185 316.964 615.103 316.196 618.713C315.428 622.323 313.815 626.163 306.455 626.271C297.867 626.348 294.303 625.979 296.485 623.905H296.469Z" fill="#085D94"/>
<path d="M308.529 598.819C308.529 598.819 304.673 617.253 300.909 621.539C300.909 621.539 307.884 623.69 312.247 614.058C317.901 601.6 320.62 604.042 320.62 604.042C320.62 604.042 319.407 600.555 318.331 598.957C316.273 595.885 308.529 598.819 308.529 598.819Z" fill="#E4897B"/>
<path d="M451.379 226.983H397.745C393.443 226.983 389.956 230.47 389.956 234.772V257.707C389.956 262.009 393.443 265.496 397.745 265.496H451.379C455.681 265.496 459.168 262.009 459.168 257.707V234.772C459.168 230.47 455.681 226.983 451.379 226.983Z" fill="#FE5C36"/>
<path d="M408.499 261.118L392.337 283.085L418.409 262.592L408.499 261.118Z" fill="#FE5C36"/>
<path d="M409.099 246.247C409.099 247.492 408.085 248.521 406.826 248.521C405.566 248.521 404.552 247.507 404.552 246.247C404.552 244.988 405.566 243.974 406.826 243.974C408.085 243.974 409.099 244.988 409.099 246.247Z" fill="white"/>
<path d="M420.915 246.247C420.915 247.492 419.901 248.521 418.641 248.521C417.381 248.521 416.367 247.507 416.367 246.247C416.367 244.988 417.381 243.974 418.641 243.974C419.901 243.974 420.915 244.988 420.915 246.247Z" fill="white"/>
<path d="M432.728 246.247C432.728 247.492 431.714 248.521 430.454 248.521C429.195 248.521 428.181 247.507 428.181 246.247C428.181 244.988 429.195 243.974 430.454 243.974C431.714 243.974 432.728 244.988 432.728 246.247Z" fill="white"/>
<path d="M444.544 246.247C444.544 247.492 443.53 248.521 442.27 248.521C441.01 248.521 439.996 247.507 439.996 246.247C439.996 244.988 441.01 243.974 442.27 243.974C443.53 243.974 444.544 244.988 444.544 246.247Z" fill="white"/>
<path d="M249.985 208.841L211.72 188.231C210.689 187.676 209.403 188.062 208.848 189.092L196.637 211.76C196.081 212.79 196.467 214.076 197.498 214.631L235.763 235.241C236.793 235.797 238.079 235.411 238.635 234.38L250.846 211.713C251.401 210.682 251.016 209.397 249.985 208.841Z" fill="#FE5C36"/>
<path opacity="0.7" d="M249.985 208.841L211.72 188.231C210.689 187.676 209.403 188.062 208.848 189.092L196.637 211.76C196.081 212.79 196.467 214.076 197.498 214.631L235.763 235.241C236.793 235.797 238.079 235.411 238.635 234.38L250.846 211.713C251.401 210.682 251.016 209.397 249.985 208.841Z" fill="#FE5C36"/>
<path opacity="0.2" d="M207.853 190.96L219.821 213.311C220.758 215.047 222.648 216.061 224.599 215.862L249.503 213.404L224.138 217.137C221.865 217.475 219.637 216.276 218.669 214.187L207.838 190.96H207.853Z" fill="black"/>
<path d="M178.8 186.797C179.2 178.256 185.53 161.035 193.227 155.766C200.924 150.497 195.854 157.793 195.854 157.793C195.854 157.793 203.151 150.696 206.992 150.911C210.833 151.126 206.992 155.566 206.992 155.566C206.992 155.566 214.889 150.696 218.545 150.896C222.187 151.096 218.545 155.351 218.545 155.351C218.545 155.351 225.029 150.696 227.656 152.924C230.283 155.151 194.025 179.054 189.97 188.778C185.914 198.503 178.37 195.446 178.785 186.797H178.8Z" fill="#085D94"/>
<path opacity="0.4" d="M178.8 186.797C179.2 178.256 185.53 161.035 193.227 155.766C200.924 150.497 195.854 157.793 195.854 157.793C195.854 157.793 203.151 150.696 206.992 150.911C210.833 151.126 206.992 155.566 206.992 155.566C206.992 155.566 214.889 150.696 218.545 150.896C222.187 151.096 218.545 155.351 218.545 155.351C218.545 155.351 225.029 150.696 227.656 152.924C230.283 155.151 194.025 179.054 189.97 188.778C185.914 198.503 178.37 195.446 178.785 186.797H178.8Z" fill="white"/>
<path d="M209.957 185.537L214.797 188.64C215.15 188.871 214.966 189.408 214.551 189.378L209.466 188.978L209.896 192.88C209.942 193.31 209.42 193.541 209.128 193.218L206.193 189.9L209.942 185.537H209.957Z" fill="#6B9EBF"/>
<path opacity="0.3" d="M209.957 185.537L214.797 188.64C215.15 188.871 214.966 189.408 214.551 189.378L209.466 188.978L209.896 192.88C209.942 193.31 209.42 193.541 209.128 193.218L206.193 189.9L209.942 185.537H209.957Z" fill="white"/>
<path d="M141.975 166.304C141.975 166.304 148.658 161.649 158.798 164.676C158.798 164.676 161.717 178.04 169.675 182.495C174.053 184.938 184.762 184.738 193.242 181.989C203.305 178.732 208.237 178.732 210.05 182.495C211.771 186.059 209.85 190.192 202.153 192.02C194.456 193.848 188.372 207.213 174.391 207.412C160.411 207.612 153.052 193.602 156.57 181.282C156.57 181.282 152.314 172.095 141.99 166.289L141.975 166.304Z" fill="#42A0DD"/>
<path opacity="0.5" d="M141.975 166.304C141.975 166.304 148.658 161.649 158.798 164.676C158.798 164.676 161.717 178.04 169.675 182.495C174.053 184.938 184.762 184.738 193.242 181.989C203.305 178.732 208.237 178.732 210.05 182.495C211.771 186.059 209.85 190.192 202.153 192.02C194.456 193.848 188.372 207.213 174.391 207.412C160.411 207.612 153.052 193.602 156.57 181.282C156.57 181.282 152.314 172.095 141.99 166.289L141.975 166.304Z" fill="white"/>
<path d="M206.209 185.03C206.209 185.414 205.902 185.721 205.518 185.721C205.133 185.721 204.826 185.414 204.826 185.03C204.826 184.646 205.133 184.339 205.518 184.339C205.902 184.339 206.209 184.646 206.209 185.03Z" fill="#263238"/>
<path d="M171.15 196.29C162.9 198.549 144.556 197.842 137.167 192.143C129.777 186.443 138.288 189.009 138.288 189.009C138.288 189.009 129.285 184.262 128.302 180.544C127.303 176.827 132.727 179.1 132.727 179.1C132.727 179.1 125.659 173.094 124.722 169.561C123.8 166.027 128.962 168.178 128.962 168.178C128.962 168.178 122.525 163.447 123.831 160.251C125.137 157.056 159.075 184.17 169.568 185.03C180.061 185.875 179.493 194.002 171.135 196.29H171.15Z" fill="#085D94"/>
<path opacity="0.4" d="M171.15 196.29C162.9 198.549 144.556 197.842 137.167 192.143C129.777 186.443 138.288 189.009 138.288 189.009C138.288 189.009 129.285 184.262 128.302 180.544C127.303 176.827 132.727 179.1 132.727 179.1C132.727 179.1 125.659 173.094 124.722 169.561C123.8 166.027 128.962 168.178 128.962 168.178C128.962 168.178 122.525 163.447 123.831 160.251C125.137 157.056 159.075 184.17 169.568 185.03C180.061 185.875 179.493 194.002 171.135 196.29H171.15Z" fill="white"/>
<path d="M117.071 158.347C115.627 157.84 114.167 157.348 112.692 156.903" stroke="#42A0DD" stroke-width="0.75" stroke-linecap="round" stroke-linejoin="round"/>
<path d="M103.721 154.614C98.3436 153.492 92.8588 152.755 87.4202 152.371C72.487 151.326 49.0578 149.851 39.9165 164.737C31.5742 178.302 45.9236 201.437 51.0089 214.034C57.2465 229.457 64.667 248.521 57.2925 264.851C42.1442 298.401 -22.674 280.981 -44.5361 250.073" stroke="#42A0DD" stroke-width="0.75" stroke-linecap="round" stroke-linejoin="round"/>
<path d="M139.578 368.16H81.2588V380.111H139.578V368.16Z" fill="white"/>
<path opacity="0.1" d="M139.578 368.16H81.2588V380.111H139.578V368.16Z" fill="black"/>
<path opacity="0.1" d="M105.825 368.16H81.2588V380.111H105.825V368.16Z" fill="black"/>
<path opacity="0.1" d="M81.2588 369.88H133.172L81.2588 371.355V369.88Z" fill="black"/>
<path opacity="0.1" d="M139.579 371.954L94.5791 373.076H139.579V371.954Z" fill="black"/>
<path opacity="0.1" d="M83.6396 375.303L105.824 374.381L138.441 375.303L105.824 375.81L83.6396 375.303Z" fill="black"/>
<path opacity="0.1" d="M81.2588 377.838H119.698L81.2588 378.744V377.838Z" fill="black"/>
<path opacity="0.1" d="M139.486 378.744L113.829 379.22H139.578L139.486 378.744Z" fill="black"/>
<path d="M131.467 356.193H73.1475V368.144H131.467V356.193Z" fill="white"/>
<path opacity="0.1" d="M131.467 356.193H73.1475V368.144H131.467V356.193Z" fill="black"/>
<path opacity="0.1" d="M97.7135 356.193H73.1475V368.144H97.7135V356.193Z" fill="black"/>
<path opacity="0.1" d="M73.1475 357.929H125.06L73.1475 359.388V357.929Z" fill="black"/>
<path opacity="0.1" d="M131.467 360.003L86.4678 361.109H131.467V360.003Z" fill="black"/>
<path opacity="0.1" d="M75.5137 363.336L97.6984 362.43L130.315 363.336L97.6984 363.843L75.5137 363.336Z" fill="black"/>
<path opacity="0.1" d="M73.1475 365.871H111.587L73.1475 366.777V365.871Z" fill="black"/>
<path opacity="0.1" d="M131.375 366.777L105.703 367.253H131.468L131.375 366.777Z" fill="black"/>
<path d="M138.119 344.241H79.7998V356.193H138.119V344.241Z" fill="white"/>
<path opacity="0.1" d="M138.119 344.241H79.7998V356.193H138.119V344.241Z" fill="black"/>
<path opacity="0.1" d="M104.366 344.241H79.7998V356.193H104.366V344.241Z" fill="black"/>
<path opacity="0.1" d="M79.7998 345.962H131.713L79.7998 347.437V345.962Z" fill="black"/>
<path opacity="0.1" d="M138.12 348.036L93.1201 349.157H138.12V348.036Z" fill="black"/>
<path opacity="0.1" d="M82.1807 351.385L104.365 350.463L136.982 351.385L104.365 351.892L82.1807 351.385Z" fill="black"/>
<path opacity="0.1" d="M79.7998 353.919H118.239L79.7998 354.826V353.919Z" fill="black"/>
<path opacity="0.1" d="M138.042 354.826L112.37 355.302H138.119L138.042 354.826Z" fill="black"/>
<path d="M176.973 379.866L178.478 374.136H240.777L269.476 377.008L270.567 379.866H176.973Z" fill="#263238"/>
<path opacity="0.4" d="M240.777 374.136V379.866H176.973L178.478 374.136H240.777Z" fill="black"/>
<path d="M228.271 346.715C228.547 349.741 226.335 352.199 223.324 352.199H127.886C124.859 352.199 122.186 349.741 121.91 346.715L116.241 285.62C116.179 284.99 116.225 284.391 116.363 283.838C116.901 281.687 118.791 280.136 121.188 280.136H216.625C219.652 280.136 222.325 282.594 222.601 285.62L228.271 346.715Z" fill="#263238"/>
<path opacity="0.4" d="M222.986 352.199H127.886C124.859 352.199 122.186 349.741 121.91 346.715L116.241 285.62C116.179 284.99 116.225 284.391 116.363 283.838H211.463C214.474 283.838 217.147 286.296 217.439 289.322L223.108 350.417C223.17 351.047 223.108 351.646 222.986 352.199Z" fill="black"/>
<path d="M157.414 314.716H177.156L171.902 371.248L203.121 375.933V379.866H137.365V375.933L150.839 371.248L157.414 314.716Z" fill="#263238"/>
<path opacity="0.1" d="M177.156 314.716L162.53 378.975L150.839 378.621L157.414 314.716H177.156Z" fill="white"/>
<path d="M177.065 626.286H167.662L150.747 390.865H163.238L177.065 626.286Z" fill="#263238"/>
<path opacity="0.4" d="M177.08 626.286H167.662L151.577 402.555L150.747 391.249H163.238L163.913 402.555L177.08 626.286Z" fill="white"/>
<path opacity="0.2" d="M163.913 402.002H151.577L150.747 391.249H163.238L163.913 402.002Z" fill="black"/>
<path d="M246.14 626.286H236.738L235.201 390.865H247.676L246.14 626.286Z" fill="#263238"/>
<path opacity="0.5" d="M247.692 391.249L247.446 429.224L246.155 626.286H236.738L235.447 429.224L235.201 391.249H247.692Z" fill="white"/>
<path opacity="0.2" d="M247.692 391.249L247.446 429.654H235.447L235.201 391.249H247.692Z" fill="black"/>
<path d="M346.063 626.286H336.66L319.745 390.865H332.236L346.063 626.286Z" fill="#263238"/>
<path opacity="0.5" d="M346.078 626.286H336.66L320.575 402.555L319.745 391.249H332.236L332.912 402.555L346.078 626.286Z" fill="white"/>
<path opacity="0.2" d="M332.912 402.002H320.575L319.745 391.249H332.236L332.912 402.002Z" fill="black"/>
<path d="M69.3995 626.286H59.9971L73.8241 390.865H86.3146L69.3995 626.286Z" fill="#263238"/>
<path opacity="0.5" d="M86.3146 391.249L85.485 402.555L69.3995 626.286H59.9971L73.1482 402.555L73.8241 391.249H86.3146Z" fill="white"/>
<path opacity="0.2" d="M73.8234 391.249H86.3139L85.4843 402.002H73.1475L73.8234 391.249Z" fill="black"/>
<path d="M63.9287 384.966H342.129V393.43C342.129 395.258 340.639 396.748 338.811 396.748H67.2472C65.4189 396.748 63.9287 395.258 63.9287 393.43V384.966Z" fill="#42A0DD"/>
<path opacity="0.6" d="M63.9287 384.966H342.129V393.43C342.129 395.258 340.639 396.748 338.811 396.748H67.2472C65.4189 396.748 63.9287 395.258 63.9287 393.43V384.966Z" fill="white"/>
<path opacity="0.2" d="M342.129 384.966H63.9287V390.865H342.129V384.966Z" fill="black"/>
<path d="M347.968 386.517H58.091C56.2627 386.517 54.7725 385.027 54.7725 383.199C54.7725 381.371 56.2627 379.881 58.091 379.881H347.968C349.796 379.881 351.286 381.371 351.286 383.199C351.286 385.027 349.796 386.517 347.968 386.517Z" fill="#085D94"/>
<path opacity="0.6" d="M347.968 386.517H58.091C56.2627 386.517 54.7725 385.027 54.7725 383.199C54.7725 381.371 56.2627 379.881 58.091 379.881H347.968C349.796 379.881 351.286 381.371 351.286 383.199C351.286 385.027 349.796 386.517 347.968 386.517Z" fill="white"/>
<path d="M279.385 369.635L282.95 364.289C283.657 363.229 284.855 362.583 286.145 362.583H290.662C291.046 362.583 291.415 362.645 291.768 362.752L307.885 367.637C308.806 367.914 309.575 368.528 310.066 369.343L312.371 373.229L279.37 369.635H279.385Z" fill="#085D94"/>
<path opacity="0.2" d="M312.385 373.229L288.925 370.679L279.385 369.635L282.949 364.289C283.656 363.229 284.854 362.583 286.145 362.583H290.662C291.046 362.583 291.414 362.645 291.783 362.752L292.136 362.86L307.884 367.637C308.806 367.914 309.589 368.513 310.081 369.343L312.385 373.229Z" fill="black"/>
<path opacity="0.2" d="M312.386 373.229L288.926 370.679L292.137 362.86L307.884 367.637C308.806 367.914 309.59 368.513 310.081 369.343L312.386 373.229Z" fill="black"/>
<path d="M323.54 379.359V379.866H273.731L275.575 372.661C276.297 369.957 278.755 368.068 281.551 368.068H303.644C304.381 368.068 305.104 368.19 305.795 368.452L308.56 369.481L319.53 373.567C321.942 374.474 323.54 376.778 323.54 379.359Z" fill="#085D94"/>
<path opacity="0.2" d="M323.54 379.359V379.866H303.092L304.183 372.077C304.475 370.019 306.61 368.759 308.561 369.481L319.531 373.567C321.943 374.474 323.54 376.778 323.54 379.359Z" fill="black"/>
<path d="M306.271 374.566L312.769 355.041C313.046 354.196 314.014 353.812 314.813 354.211C315.412 354.518 315.719 355.21 315.55 355.87L310.065 376.716C310.065 376.716 306.424 378.191 306.271 374.566Z" fill="#263238"/>
<path opacity="0.2" d="M279.385 378.253H276.497L277.05 375.411H279.939L279.385 378.253Z" fill="black"/>
<path opacity="0.2" d="M283.686 378.13H280.798L281.351 375.303H284.239L283.686 378.13Z" fill="black"/>
</g>
<defs>
<clipPath id="clip0_493_45">
<rect width="547" height="626" fill="white"/>
</clipPath>
</defs>
</svg>
