<svg width="53" height="49" viewBox="0 0 53 49" fill="none" xmlns="http://www.w3.org/2000/svg">
<g filter="url(#filter0_d_105_1789)">
<path d="M4.66696 40.15C4.66696 37.75 4.66696 35.35 4.66696 32.95C4.66696 30.45 4.66696 28 4.66696 25.6C4.66696 17.9 5.76696 11.85 7.96696 7.44999C10.167 3.05 14.017 0.749995 19.517 0.549992L22.367 6.4C19.267 6.69999 17.117 8.19999 15.917 10.9C14.817 13.5 14.267 17.65 14.267 23.35H22.217V40.15H4.66696ZM31.067 40.15C31.067 37.75 31.067 35.35 31.067 32.95C31.067 30.45 31.067 28 31.067 25.6C31.067 17.9 32.167 11.85 34.367 7.44999C36.567 3.05 40.417 0.749995 45.917 0.549992L48.767 6.4C45.667 6.69999 43.517 8.19999 42.317 10.9C41.217 13.5 40.667 17.65 40.667 23.35H48.617V40.15H31.067Z" fill="white"/>
</g>
<defs>
<filter id="filter0_d_105_1789" x="0.666962" y="0.549805" width="52.1" height="47.6001" filterUnits="userSpaceOnUse" color-interpolation-filters="sRGB">
<feFlood flood-opacity="0" result="BackgroundImageFix"/>
<feColorMatrix in="SourceAlpha" type="matrix" values="0 0 0 0 0 0 0 0 0 0 0 0 0 0 0 0 0 0 127 0" result="hardAlpha"/>
<feOffset dy="4"/>
<feGaussianBlur stdDeviation="2"/>
<feComposite in2="hardAlpha" operator="out"/>
<feColorMatrix type="matrix" values="0 0 0 0 0 0 0 0 0 0 0 0 0 0 0 0 0 0 0.25 0"/>
<feBlend mode="normal" in2="BackgroundImageFix" result="effect1_dropShadow_105_1789"/>
<feBlend mode="normal" in="SourceGraphic" in2="effect1_dropShadow_105_1789" result="shape"/>
</filter>
</defs>
</svg>
