<svg width="" height="" viewBox="0 0 468 389" fill="none" xmlns="http://www.w3.org/2000/svg">
<path opacity="0.6" d="M297.365 0.119324H249.608V386.97H297.365V0.119324Z" fill="#9BC1F9"/>
<path opacity="0.6" d="M230.672 118.118H182.915V386.97H230.672V118.118Z" fill="#9BC1F9"/>
<path opacity="0.6" d="M365.021 83.9329H317.264V386.97H365.021V83.9329Z" fill="#9BC1F9"/>
<path opacity="0.6" d="M163.979 72.0165H116.223V386.97H163.979V72.0165Z" fill="#9BC1F9"/>
<path opacity="0.6" d="M97.2866 165.397H49.5297V386.967H97.2866V165.397Z" fill="#9BC1F9"/>
<g style="mix-blend-mode:multiply" opacity="0.3">
<path d="M297.365 89.2776H249.608V386.97H297.365V89.2776Z" fill="#9BC1F9"/>
</g>
<g style="mix-blend-mode:multiply" opacity="0.3">
<path d="M230.672 180.079H182.915V386.967H230.672V180.079Z" fill="#9BC1F9"/>
</g>
<g style="mix-blend-mode:multiply" opacity="0.3">
<path d="M365.021 153.775H317.264V386.97H365.021V153.775Z" fill="#9BC1F9"/>
</g>
<g style="mix-blend-mode:multiply" opacity="0.3">
<path d="M163.979 144.605H116.222V386.97H163.979V144.605Z" fill="#9BC1F9"/>
</g>
<g style="mix-blend-mode:multiply" opacity="0.3">
<path d="M97.2865 216.464H49.5295V386.97H97.2865V216.464Z" fill="#9BC1F9"/>
</g>
<path d="M388.232 3.07971L350.177 33.1973L364.692 34.1675L273.854 201.483L223.559 122.568L152.407 296.253L106.642 228.224L0.216675 388.565H12.2056L106.619 249.056L154.995 320.966L225.885 147.917L274.685 224.488L375.254 39.2478L384.591 49.7575L388.232 3.07971Z" fill="#085D94"/>
<path d="M419.755 362.184V381.63C419.755 384.773 386.247 387.321 344.91 387.321C303.573 387.321 270.065 384.773 270.065 381.63V362.184H419.755Z" fill="#E59F39"/>
<path d="M365.59 387.099V362.182H419.756V381.628C419.756 384.226 396.868 386.416 365.59 387.099Z" fill="#EAB054"/>
<path d="M363.072 387.152C357.257 387.261 351.175 387.321 344.912 387.321C335.58 387.321 326.646 387.192 318.408 386.955V362.184H363.072V387.152Z" fill="#EAB054"/>
<path d="M315.407 386.862C288.741 385.992 270.065 383.977 270.065 381.63V362.184H315.407V386.862Z" fill="#EAB054"/>
<path d="M344.91 367.669C386.246 367.669 419.755 365.121 419.755 361.977C419.755 358.834 386.246 356.286 344.91 356.286C303.574 356.286 270.065 358.834 270.065 361.977C270.065 365.121 303.574 367.669 344.91 367.669Z" fill="#E59F39"/>
<path d="M283.276 361.977C283.276 364.157 310.87 365.923 344.91 365.923C378.95 365.923 406.544 364.157 406.544 361.977C406.544 359.797 378.95 358.032 344.91 358.032C310.87 358.032 283.276 359.797 283.276 361.977Z" fill="#F7CC7F"/>
<path d="M432.562 341.606V361.052C432.562 364.194 399.054 366.743 357.717 366.743C316.38 366.743 282.871 364.194 282.871 361.052V341.606H432.562Z" fill="#E59F39"/>
<path d="M378.397 366.524V341.606H432.562V361.052C432.562 363.651 409.675 365.84 378.397 366.524Z" fill="#EAB054"/>
<path d="M375.876 366.576C370.061 366.686 363.98 366.746 357.717 366.746C348.385 366.746 339.45 366.616 331.212 366.379V341.609H375.876V366.576Z" fill="#EAB054"/>
<path d="M328.212 366.284C301.545 365.414 282.869 363.399 282.869 361.052V341.606H328.212V366.284Z" fill="#EAB054"/>
<path d="M357.717 347.091C399.053 347.091 432.562 344.542 432.562 341.399C432.562 338.256 399.053 335.708 357.717 335.708C316.381 335.708 282.871 338.256 282.871 341.399C282.871 344.542 316.381 347.091 357.717 347.091Z" fill="#E59F39"/>
<path d="M357.717 345.345C391.756 345.345 419.35 343.578 419.35 341.399C419.35 339.22 391.756 337.454 357.717 337.454C323.677 337.454 296.083 339.22 296.083 341.399C296.083 343.578 323.677 345.345 357.717 345.345Z" fill="#F7CC7F"/>
<path d="M424.031 320.482V339.928C424.031 343.07 390.523 345.619 349.186 345.619C307.849 345.619 274.34 343.07 274.34 339.928V320.482H424.031Z" fill="#E59F39"/>
<path d="M369.866 345.4V320.482H424.031V339.928C424.031 342.527 401.144 344.716 369.866 345.4Z" fill="#EAB054"/>
<path d="M367.345 345.452C361.53 345.562 355.448 345.622 349.185 345.622C339.853 345.622 330.919 345.492 322.681 345.255V320.484H367.345V345.452Z" fill="#EAB054"/>
<path d="M319.681 345.16C293.014 344.29 274.338 342.275 274.338 339.928V320.482H319.681V345.16Z" fill="#EAB054"/>
<path d="M349.183 325.969C390.519 325.969 424.028 323.421 424.028 320.278C424.028 317.134 390.519 314.586 349.183 314.586C307.847 314.586 274.338 317.134 274.338 320.278C274.338 323.421 307.847 325.969 349.183 325.969Z" fill="#E59F39"/>
<path d="M349.183 324.223C383.222 324.223 410.817 322.456 410.817 320.277C410.817 318.098 383.222 316.332 349.183 316.332C315.144 316.332 287.549 318.098 287.549 320.277C287.549 322.456 315.144 324.223 349.183 324.223Z" fill="#F7CC7F"/>
<path d="M432.562 299.65V319.095C432.562 322.238 399.054 324.787 357.717 324.787C316.38 324.787 282.871 322.238 282.871 319.095V299.65H432.562Z" fill="#E59F39"/>
<path d="M378.397 324.565V299.647H432.562V319.093C432.562 321.692 409.675 323.881 378.397 324.565Z" fill="#EAB054"/>
<path d="M375.876 324.617C370.061 324.727 363.98 324.787 357.717 324.787C348.385 324.787 339.45 324.657 331.212 324.42V299.65H375.876V324.617Z" fill="#EAB054"/>
<path d="M328.212 324.328C301.545 323.457 282.869 321.442 282.869 319.095V299.649H328.212V324.328Z" fill="#EAB054"/>
<path d="M357.717 305.134C399.053 305.134 432.562 302.586 432.562 299.443C432.562 296.299 399.053 293.751 357.717 293.751C316.381 293.751 282.871 296.299 282.871 299.443C282.871 302.586 316.381 305.134 357.717 305.134Z" fill="#E59F39"/>
<path d="M357.717 303.388C391.756 303.388 419.35 301.622 419.35 299.443C419.35 297.264 391.756 295.497 357.717 295.497C323.677 295.497 296.083 297.264 296.083 299.443C296.083 301.622 323.677 303.388 357.717 303.388Z" fill="#F7CC7F"/>
<path d="M467.386 276.019L462.889 292.447C462.162 295.103 433.265 288.768 398.343 278.301C363.424 267.833 335.704 257.194 336.431 254.538L340.928 238.11L467.386 276.019Z" fill="#E59F39"/>
<path d="M415.866 283.351L421.626 262.302L467.384 276.019L462.887 292.447C462.286 294.642 442.445 290.696 415.864 283.354L415.866 283.351Z" fill="#EAB054"/>
<path d="M413.726 282.758C408.789 281.378 403.636 279.887 398.346 278.301C390.463 275.937 382.946 273.565 376.04 271.278L381.767 250.353L419.498 261.663L413.724 282.758H413.726Z" fill="#EAB054"/>
<path d="M373.529 270.442C351.201 262.953 335.89 256.521 336.433 254.54L340.93 238.112L379.236 249.595L373.531 270.442H373.529Z" fill="#EAB054"/>
<path d="M340.976 237.938C340.249 240.594 367.969 251.233 402.888 261.701C437.807 272.168 466.707 278.503 467.434 275.847C468.161 273.191 440.441 262.551 405.521 252.084C370.602 241.616 341.702 235.282 340.976 237.938Z" fill="#E59F39"/>
<path d="M352.138 241.282C351.633 243.123 374.536 251.605 403.293 260.224C432.05 268.844 455.768 274.34 456.274 272.497C456.779 270.657 433.875 262.175 405.119 253.555C376.362 244.936 352.643 239.439 352.138 241.28V241.282Z" fill="#F7CC7F"/>
<path d="M426.493 162.958L431.28 179.294C432.055 181.935 404.528 193.111 369.801 204.256C335.073 215.402 306.292 222.298 305.518 219.657L300.73 203.321L426.493 162.958Z" fill="#E59F39"/>
<path d="M387.119 198.498L380.985 177.563L426.49 162.958L431.278 179.294C431.916 181.476 413.228 189.489 387.119 198.495V198.498Z" fill="#EAB054"/>
<path d="M385.015 199.221C380.158 200.882 375.061 202.57 369.799 204.259C361.959 206.775 354.421 209.075 347.441 211.097L341.343 190.287L378.867 178.244L385.012 199.221H385.015Z" fill="#EAB054"/>
<path d="M344.898 211.828C322.28 218.288 306.094 221.63 305.515 219.659L300.728 203.324L338.821 191.098L344.898 211.831V211.828Z" fill="#EAB054"/>
<path d="M300.678 203.149C301.452 205.79 330.233 198.894 364.959 187.748C399.688 176.603 427.212 165.427 426.438 162.786C425.663 160.145 396.883 167.041 362.157 178.186C327.428 189.332 299.903 200.508 300.678 203.149Z" fill="#E59F39"/>
<path d="M311.778 199.588C312.314 201.418 335.933 195.462 364.53 186.285C393.127 177.107 415.876 168.181 415.34 166.35C414.803 164.519 391.185 170.475 362.588 179.653C333.991 188.831 311.242 197.757 311.778 199.588Z" fill="#F7CC7F"/>
<path d="M197.664 386.433H328.784V336.491H197.664V386.433Z" fill="#50BFA5"/>
<path d="M197.664 350.196H328.784V343.771H197.664V350.196Z" fill="#96D9C9"/>
<path d="M197.664 362.745H328.784V356.321H197.664V362.745Z" fill="#96D9C9"/>
<path d="M197.664 375.293H328.784V368.868H197.664V375.293Z" fill="#96D9C9"/>
<path d="M197.664 386.436H328.784V380.011H197.664V386.436Z" fill="#96D9C9"/>
<path d="M246.472 386.433H273.742V336.491H246.472V386.433Z" fill="#F7CC7F"/>
<path d="M327.192 386.433H346.993V336.491H327.192V386.433Z" fill="#3C8F7C"/>
</svg>
